<svg width="50" height="65" viewBox="0 0 50 65" fill="none" xmlns="http://www.w3.org/2000/svg">
<path d="M11.9175 32.9335C11.7939 31.9984 11.5341 30.0303 9.89393 28.9972C8.58397 28.1729 7.1888 28.469 5.7553 28.6586C4.64768 28.8055 3.56137 28.8353 2.55813 29.3828C1.66778 29.8684 0.88819 30.6544 0.496265 31.598C0.321603 32.0155 0.114991 32.7525 0.108601 33.6087C0.104341 34.0986 0.168242 34.4927 0.206582 34.7355C0.276873 35.1573 0.364203 35.6961 0.651756 36.316C0.773168 36.578 1.03942 37.1382 1.60175 37.6856C2.31531 38.38 3.11194 38.6718 3.61462 38.7975C4.18547 38.9381 4.64768 38.9317 5.14824 38.9061C6.04711 38.8592 7.35707 38.7378 9.00784 38.397C9.49775 38.2671 10.3135 37.9731 10.9824 37.2532C12.2966 35.8389 12.041 33.8771 11.9175 32.9399V32.9335Z" fill="#096936"/>
<path d="M4.66707 39.0233C4.33266 39.0233 3.98547 38.9956 3.58928 38.8976C3.044 38.7613 2.24311 38.4546 1.52742 37.7602C0.939531 37.1893 0.669018 36.6078 0.553997 36.3608C0.260053 35.7281 0.170593 35.1871 0.100302 34.7526C0.0640917 34.5311 -0.00406936 34.1178 0.000190686 33.6088C0.00871078 32.5714 0.306914 31.7769 0.396375 31.5597C0.77765 30.6416 1.54659 29.8152 2.50723 29.2933C3.35072 28.8333 4.22829 28.7331 5.15911 28.6288C5.35294 28.6075 5.54677 28.584 5.74274 28.5585C5.8748 28.5414 6.00899 28.5223 6.14105 28.5031C7.41481 28.3263 8.73329 28.1431 9.9538 28.9121C11.6386 29.9728 11.9006 31.9665 12.0263 32.925C12.152 33.8835 12.4118 35.8751 11.0635 37.3257C10.5459 37.8816 9.84516 38.2884 9.03788 38.5014C7.6981 38.7762 6.39452 38.9487 5.15698 39.0126C4.99723 39.0212 4.83535 39.0276 4.67133 39.0276L4.66707 39.0233ZM7.83016 28.5542C7.28914 28.5542 6.73533 28.6309 6.16661 28.7097C6.03455 28.7289 5.90036 28.7459 5.76617 28.7651C5.5702 28.7907 5.37424 28.8141 5.17828 28.8354C4.27089 28.9376 3.41249 29.0356 2.60521 29.4765C1.68717 29.9771 0.954443 30.7652 0.590208 31.6385C0.502877 31.8472 0.217454 32.6098 0.208934 33.6088C0.204674 34.1008 0.270704 34.5013 0.306915 34.7164C0.377206 35.1381 0.462406 35.6621 0.743569 36.2692C0.85433 36.5056 1.11206 37.0615 1.67226 37.6068C2.35174 38.2693 3.11642 38.5611 3.63614 38.691C4.2006 38.8316 4.65003 38.8209 5.13781 38.7954C6.3647 38.7315 7.65763 38.5611 8.98251 38.2884C9.74505 38.0882 10.4118 37.7027 10.9017 37.1766C12.1818 35.7984 11.9305 33.8729 11.809 32.9485C11.6876 32.0219 11.4363 30.0964 9.83451 29.0889C9.18699 28.6799 8.51816 28.5542 7.82803 28.5542H7.83016Z" fill="#231F20"/>
<path d="M37.8506 33.8155C37.8506 32.8719 37.8506 30.8867 39.3416 29.6491C40.5323 28.6608 41.9551 28.7737 43.4014 28.7737C44.5176 28.7737 45.5996 28.6629 46.6668 29.0719C47.6146 29.4361 48.4901 30.1135 49.0013 30.9974C49.2292 31.3894 49.5295 32.0923 49.6488 32.94C49.7169 33.4257 49.7063 33.824 49.6978 34.0689C49.685 34.4949 49.6658 35.0423 49.4614 35.6941C49.374 35.971 49.1844 36.5589 48.6988 37.1745C48.0832 37.9562 47.3292 38.3503 46.8478 38.5398C46.3004 38.755 45.8403 38.8082 45.3419 38.8466C44.4451 38.9169 43.1288 38.968 41.4482 38.8466C40.9455 38.7827 40.0978 38.5974 39.3416 37.969C37.8527 36.7378 37.8506 34.7591 37.8506 33.8133V33.8155Z" fill="#0B5F31"/>
<path d="M43.442 39.0255C42.788 39.0255 42.1213 39.002 41.4419 38.953C40.6069 38.8465 39.8593 38.5356 39.2735 38.052C37.7463 36.7889 37.7441 34.7803 37.7441 33.8154C37.7441 32.8484 37.7441 30.8376 39.2735 29.566C40.3832 28.6437 41.7145 28.6522 42.9989 28.6629C43.3291 28.665 43.6614 28.6629 43.9894 28.6586C44.9245 28.6416 45.8084 28.6267 46.7052 28.9717C47.7254 29.3637 48.5945 30.0836 49.0929 30.9441C49.2122 31.1486 49.6105 31.8984 49.7553 32.9251C49.8256 33.4299 49.8129 33.8474 49.8043 34.0731C49.7894 34.5119 49.7724 35.0594 49.5636 35.726C49.4827 35.9859 49.291 36.5972 48.7819 37.2405C48.1642 38.0243 47.4102 38.4333 46.8862 38.6378C46.3196 38.8614 45.8361 38.9126 45.3505 38.953C44.7327 39.002 44.0937 39.0255 43.4398 39.0255H43.442ZM42.5963 28.8738C41.4397 28.8738 40.3513 28.9462 39.4098 29.73C37.955 30.9378 37.9571 32.8803 37.9571 33.8154C37.9571 34.7484 37.9593 36.6909 39.4098 37.888C39.9721 38.3524 40.6623 38.6399 41.4632 38.74C42.8029 38.8359 44.1087 38.8359 45.3355 38.74C45.8233 38.7017 46.2706 38.6527 46.8117 38.4397C47.3101 38.2437 48.03 37.8539 48.6179 37.1084C49.1014 36.495 49.2846 35.9114 49.3634 35.6622C49.5636 35.0231 49.5807 34.4928 49.5935 34.0646C49.5999 33.8452 49.6126 33.4405 49.5466 32.9528C49.4082 31.9644 49.0247 31.2466 48.9119 31.0485C48.4369 30.2306 47.6062 29.5447 46.6306 29.1677C45.7722 28.8375 44.9074 28.8525 43.9958 28.8695C43.6656 28.8759 43.3312 28.878 43.001 28.8738C42.8668 28.8738 42.7327 28.8738 42.6006 28.8738H42.5963Z" fill="#231F20"/>
<path d="M45.5355 8.99291L45.9828 9.76767C46.7901 11.1659 46.3106 12.9554 44.9124 13.7626L43.0769 14.8223C41.8558 15.5274 40.2904 15.1079 39.5853 13.8868L38.7695 12.4738C38.0645 11.2526 38.4839 9.68719 39.7051 8.98215L41.5405 7.92247C42.9388 7.11519 44.7282 7.59466 45.5355 8.99291Z" fill="#F7BE3D"/>
<path d="M41.8077 15.3759C41.5671 15.3759 41.3221 15.3439 41.0814 15.28C40.3657 15.0883 39.7672 14.6304 39.3987 13.9935L38.5829 12.5813C38.2144 11.9423 38.1164 11.1968 38.3102 10.4811C38.5041 9.76537 38.9599 9.16684 39.5968 8.79834L41.4329 7.73972C42.9324 6.87493 44.8537 7.3904 45.7206 8.8878L46.1679 9.661C47.0327 11.1605 46.5172 13.0818 45.0198 13.9466L43.1837 15.0052C42.7599 15.2502 42.287 15.3759 41.8099 15.3759H41.8077ZM42.9984 7.74398C42.5383 7.74398 42.074 7.86113 41.648 8.10609L39.8119 9.16471C39.273 9.47569 38.8854 9.98264 38.7235 10.5876C38.5616 11.1925 38.6425 11.8251 38.9535 12.364L39.7693 13.7762C40.0803 14.3151 40.5872 14.7028 41.1922 14.8647C41.7992 15.0265 42.4297 14.9456 42.9686 14.6346L44.8047 13.576C46.0997 12.8283 46.5449 11.1669 45.7973 9.87188L45.35 9.09868C44.8473 8.22963 43.9335 7.74398 42.9963 7.74398H42.9984Z" fill="#231F20"/>
<path d="M45.5588 11.843C46.0417 11.5642 45.9782 10.5503 45.4171 9.57842C44.856 8.60651 44.0096 8.04463 43.5267 8.32343C43.0438 8.60223 43.1072 9.61614 43.6684 10.588C44.2295 11.56 45.0759 12.1218 45.5588 11.843Z" fill="#D49529"/>
<path d="M45.2784 12.021C45.0697 12.021 44.8333 11.9379 44.584 11.7718C44.2134 11.5247 43.8556 11.1243 43.5766 10.6386C42.9759 9.59918 42.9312 8.54055 43.4743 8.22744C44.0153 7.91433 44.9121 8.48304 45.5106 9.5225C45.7896 10.006 45.96 10.5172 45.9877 10.9624C46.0176 11.4331 45.8834 11.7782 45.6129 11.9337C45.5127 11.9912 45.3999 12.0189 45.2784 12.0189V12.021ZM43.8087 8.35737C43.7235 8.35737 43.6468 8.37654 43.5787 8.41488C43.1548 8.65984 43.2379 9.63113 43.7597 10.5343C44.0239 10.9901 44.3583 11.3671 44.7012 11.595C45.0186 11.8059 45.3125 11.8613 45.5042 11.7505C45.6981 11.6376 45.796 11.3564 45.7726 10.9773C45.747 10.5662 45.5873 10.087 45.3232 9.63113C44.8844 8.87071 44.2496 8.35737 43.8066 8.35737H43.8087Z" fill="#231F20"/>
<path d="M44.805 10.4651C45.0023 10.3651 45.0444 10.0518 44.8992 9.76541C44.7539 9.47898 44.4763 9.32787 44.279 9.4279C44.0818 9.52792 44.0396 9.8412 44.1849 10.1276C44.3301 10.4141 44.6078 10.5652 44.805 10.4651Z" fill="#713817"/>
<path d="M44.6725 10.6066C44.5915 10.6066 44.5085 10.5832 44.4254 10.5385C44.2891 10.4639 44.1698 10.3361 44.091 10.1785C44.0122 10.0209 43.9781 9.85047 43.9994 9.6971C44.0228 9.52883 44.1059 9.40103 44.2337 9.33713C44.4872 9.2072 44.8237 9.3776 44.9984 9.72053C45.173 10.0635 45.1113 10.4341 44.8557 10.564C44.7981 10.5917 44.7385 10.6066 44.6746 10.6066H44.6725ZM44.4126 9.5054C44.3828 9.5054 44.353 9.51179 44.3274 9.52457C44.2422 9.56717 44.2167 9.66728 44.2081 9.72479C44.1932 9.83342 44.2188 9.96336 44.2784 10.0826C44.3381 10.1998 44.4275 10.2978 44.5255 10.351C44.5745 10.3787 44.6725 10.4171 44.7555 10.3723C44.8983 10.2999 44.9196 10.0443 44.8045 9.81639C44.7108 9.62894 44.5468 9.50753 44.4126 9.50753V9.5054Z" fill="#231F20"/>
<path d="M47.3665 47.4938L47.1547 48.363C46.7726 49.9317 45.1898 50.8944 43.6211 50.5123L41.562 50.0107C40.192 49.677 39.3498 48.2924 39.6835 46.9223L40.0696 45.3371C40.4034 43.9671 41.788 43.1249 43.158 43.4586L45.2172 43.9602C46.7858 44.3423 47.7486 45.9251 47.3665 47.4938Z" fill="#F7BE3D"/>
<path d="M44.313 50.8087C44.0659 50.8087 43.8167 50.7789 43.5696 50.7193L41.5099 50.2187C40.0274 49.8566 39.1136 48.3571 39.4757 46.8725L39.8612 45.2877C40.2233 43.8052 41.725 42.8914 43.2075 43.2535L45.2672 43.7541C46.0788 43.9522 46.7668 44.4549 47.2034 45.1748C47.6401 45.8926 47.7722 46.7361 47.5741 47.5455L47.3632 48.4146C47.1651 49.2261 46.6624 49.9141 45.9425 50.3508C45.4419 50.6554 44.8817 50.8109 44.313 50.8109V50.8087ZM39.8889 46.9726C39.5843 48.2271 40.3554 49.4988 41.61 49.8034L43.6697 50.3039C44.3705 50.4743 45.099 50.3614 45.7188 49.9823C46.3408 49.6053 46.7753 49.011 46.9457 48.3102L47.1566 47.4412C47.327 46.7404 47.2141 46.0119 46.8349 45.3921C46.4579 44.7701 45.8636 44.3356 45.1629 44.1652L43.1031 43.6646C41.8486 43.36 40.5791 44.1311 40.2723 45.3857L39.8868 46.9704L39.8889 46.9726Z" fill="#231F20"/>
<path d="M46.8784 47.8351C47.144 46.7447 46.9201 45.7538 46.3783 45.6219C45.8366 45.4899 45.1821 46.2669 44.9165 47.3572C44.6509 48.4476 44.8747 49.4385 45.4165 49.5705C45.9583 49.7025 46.6128 48.9255 46.8784 47.8351Z" fill="#D49529"/>
<path d="M45.5364 49.6927C45.4874 49.6927 45.4384 49.6863 45.3894 49.6756C44.7802 49.5265 44.5268 48.4977 44.81 47.3326C44.9421 46.7894 45.1722 46.3038 45.4597 45.963C45.7643 45.603 46.0987 45.4433 46.4012 45.5178C47.0104 45.6669 47.2638 46.6957 46.9805 47.8608C46.7185 48.9322 46.1072 49.6927 45.5385 49.6927H45.5364ZM46.2563 45.7138C46.0582 45.7138 45.8346 45.8501 45.6237 46.0993C45.3575 46.4146 45.1423 46.8704 45.0188 47.3816C44.7717 48.3955 44.9655 49.3519 45.4405 49.4669C45.9177 49.5819 46.5268 48.8236 46.7739 47.8097C47.021 46.7958 46.8272 45.8394 46.3522 45.7244C46.3224 45.7159 46.2904 45.7138 46.2563 45.7138Z" fill="#231F20"/>
<path d="M46.3703 47.6113C46.4631 47.3039 46.3668 47.0028 46.155 46.9389C45.9433 46.875 45.6964 47.0724 45.6036 47.3798C45.5108 47.6873 45.6072 47.9883 45.8189 48.0523C46.0306 48.1162 46.2775 47.9188 46.3703 47.6113Z" fill="#713817"/>
<path d="M45.9025 48.174C45.8642 48.174 45.8259 48.1676 45.7875 48.157C45.6512 48.1165 45.5468 48.0036 45.4936 47.8417C45.4467 47.6948 45.4488 47.5201 45.5 47.3518C45.5511 47.1835 45.6448 47.0366 45.7662 46.9407C45.8983 46.8342 46.0474 46.8001 46.1837 46.8406C46.32 46.8811 46.4244 46.994 46.4776 47.1559C46.5245 47.3028 46.5224 47.4775 46.4713 47.6458C46.3754 47.9631 46.139 48.174 45.9004 48.174H45.9025ZM46.0729 47.0366C46.0005 47.0366 45.9366 47.077 45.9004 47.1069C45.8131 47.175 45.7428 47.2879 45.7044 47.4136C45.6661 47.5393 45.664 47.6735 45.6981 47.7778C45.7151 47.8311 45.7577 47.9248 45.8493 47.9525C46.0027 47.9994 46.1944 47.829 46.2689 47.584C46.3072 47.4583 46.3094 47.3241 46.2753 47.2198C46.2583 47.1665 46.2157 47.0728 46.1241 47.043C46.107 47.0387 46.09 47.0344 46.0729 47.0344V47.0366Z" fill="#231F20"/>
<path d="M11.4661 12.5434L10.6503 13.9564C9.94529 15.1776 8.37989 15.597 7.15873 14.892L5.32329 13.8323C3.92504 13.025 3.44556 11.2356 4.25284 9.83734L4.70015 9.06258C5.50743 7.66433 7.29687 7.18485 8.69512 7.99213L10.5306 9.05182C11.7517 9.75686 12.1712 11.3223 11.4661 12.5434Z" fill="#F7BE3D"/>
<path d="M8.4306 15.4461C7.96199 15.4461 7.48487 15.3268 7.05034 15.0755L5.21426 14.0168C4.49006 13.5994 3.97246 12.922 3.7552 12.1105C3.53793 11.2989 3.6487 10.4533 4.06618 9.7291L4.51349 8.9559C5.37828 7.45636 7.30169 6.94302 8.80122 7.80781L10.6373 8.86644C11.2763 9.23493 11.7321 9.83134 11.9238 10.5492C12.1155 11.2648 12.0197 12.0125 11.6512 12.6494L10.8354 14.0616C10.3221 14.9498 9.39124 15.4461 8.43273 15.4461H8.4306ZM7.23566 7.81207C6.29845 7.81207 5.38467 8.29772 4.88198 9.16677L4.43467 9.93997C4.0747 10.5641 3.97885 11.2947 4.16629 11.9976C4.35373 12.7005 4.80104 13.2841 5.42727 13.6462L7.26335 14.7048C8.38161 15.3502 9.81725 14.9668 10.4648 13.8464L11.2806 12.4342C11.5916 11.8953 11.6746 11.2627 11.5106 10.6578C11.3487 10.0507 10.9611 9.54592 10.4222 9.23493L8.58609 8.17631C8.16009 7.93136 7.69361 7.8142 7.23566 7.8142V7.81207Z" fill="#231F20"/>
<path d="M6.56651 10.6547C7.12765 9.68283 7.19107 8.66892 6.70817 8.39012C6.22527 8.11132 5.37891 8.67319 4.81778 9.64511C4.25665 10.617 4.19322 11.6309 4.67612 11.9097C5.15902 12.1885 6.00538 11.6266 6.56651 10.6547Z" fill="#D49529"/>
<path d="M4.9574 12.0891C4.83599 12.0891 4.7231 12.0615 4.62299 12.0039C4.35247 11.8485 4.22041 11.5034 4.25023 11.0327C4.27792 10.5896 4.44619 10.0784 4.72736 9.59276C5.32802 8.5533 6.22263 7.98672 6.76366 8.2977C7.30682 8.61081 7.25996 9.66944 6.66142 10.7089C6.17364 11.5545 5.48778 12.0891 4.95953 12.0891H4.9574ZM4.91054 9.69926C4.64642 10.1551 4.48879 10.6343 4.4611 11.0454C4.43767 11.4246 4.53566 11.7079 4.72949 11.8186C5.15336 12.0636 5.95212 11.5055 6.47398 10.6024C6.99583 9.69926 7.0789 8.72797 6.65503 8.48301C6.23115 8.23806 5.4324 8.79613 4.91054 9.69926Z" fill="#231F20"/>
<path d="M6.04858 10.2009C6.19383 9.91447 6.15168 9.60119 5.95444 9.50117C5.75719 9.40114 5.47954 9.55225 5.33429 9.83868C5.18904 10.1251 5.23119 10.4384 5.42844 10.5384C5.62568 10.6384 5.90333 10.4873 6.04858 10.2009Z" fill="#713817"/>
<path d="M5.56143 10.6748C5.49753 10.6748 5.43576 10.6599 5.38038 10.6322C5.25257 10.5683 5.1695 10.4384 5.14607 10.2722C5.12477 10.1189 5.15672 9.94848 5.23766 9.79086C5.31648 9.63324 5.43576 9.50544 5.57208 9.43089C5.72118 9.34995 5.87454 9.34142 6.00021 9.40532C6.25368 9.53312 6.31546 9.90375 6.14292 10.2488C6.06198 10.4064 5.94483 10.5342 5.80851 10.6067C5.72544 10.6514 5.64237 10.6748 5.56143 10.6748ZM5.82129 9.57573C5.76378 9.57573 5.7084 9.59916 5.67432 9.61833C5.57634 9.67158 5.48688 9.76956 5.42724 9.88671C5.3676 10.0039 5.34203 10.1338 5.35694 10.2446C5.36547 10.2999 5.39102 10.4 5.47623 10.4448C5.56143 10.4874 5.65728 10.449 5.70627 10.4235C5.80425 10.3702 5.89371 10.2722 5.95335 10.1551C6.0705 9.92505 6.04707 9.67158 5.90436 9.59916C5.87667 9.58425 5.84685 9.57999 5.81916 9.57999L5.82129 9.57573Z" fill="#231F20"/>
<path d="M10.9331 45.3003L11.3192 46.8856C11.6529 48.2556 10.8107 49.6402 9.44072 49.9739L7.38156 50.4755C5.81287 50.8576 4.23009 49.8949 3.84798 48.3262L3.63625 47.457C3.25414 45.8883 4.21686 44.3055 5.78555 43.9234L7.84471 43.4218C9.21473 43.0881 10.5993 43.9303 10.9331 45.3003Z" fill="#F7BE3D"/>
<path d="M6.68903 50.7704C5.27682 50.7704 3.98816 49.8076 3.64097 48.3741L3.43009 47.5051C3.02113 45.8245 4.05632 44.1226 5.73691 43.7136L7.79664 43.2131C8.51233 43.0384 9.25571 43.1556 9.88833 43.5411C10.5231 43.9266 10.9661 44.5337 11.1408 45.2494L11.5263 46.8341C11.8884 48.3166 10.9746 49.8183 9.49214 50.1804L7.43241 50.6809C7.1832 50.7406 6.93398 50.7704 6.68903 50.7704ZM8.44843 43.5603C8.26312 43.5603 8.07781 43.5816 7.89462 43.6263L5.83489 44.1269C4.38221 44.4804 3.4876 45.9502 3.84119 47.4028L4.05206 48.2719C4.40564 49.7246 5.87536 50.6192 7.32804 50.2656L9.38777 49.765C10.6424 49.4583 11.4156 48.1888 11.1088 46.9342L10.7233 45.3495C10.5763 44.7446 10.1993 44.2312 9.66255 43.9053C9.28979 43.6774 8.87018 43.5603 8.4463 43.5603H8.44843Z" fill="#231F20"/>
<path d="M5.58732 49.5311C6.12908 49.3991 6.35295 48.4082 6.08735 47.3178C5.82174 46.2274 5.16724 45.4505 4.62548 45.5825C4.08372 45.7144 3.85985 46.7053 4.12545 47.7957C4.39106 48.8861 5.04556 49.6631 5.58732 49.5311Z" fill="#D49529"/>
<path d="M5.46399 49.6523C5.20199 49.6523 4.92509 49.4925 4.67162 49.1901C4.38406 48.8493 4.15402 48.3636 4.02196 47.8205C3.73866 46.6553 3.99214 45.6265 4.60133 45.4774C5.21051 45.3262 5.90916 46.1271 6.19245 47.2922C6.32452 47.8354 6.34369 48.3743 6.2457 48.8067C6.14133 49.2667 5.91768 49.5607 5.61309 49.6331C5.5641 49.6459 5.51511 49.6501 5.46399 49.6501V49.6523ZM4.7483 45.6734C4.71422 45.6734 4.68227 45.6777 4.65032 45.684C4.17532 45.7991 3.98149 46.7554 4.22857 47.7693C4.35424 48.2805 4.56725 48.7364 4.8335 49.0516C5.07845 49.3434 5.3447 49.4797 5.56197 49.4265C5.77923 49.3732 5.95176 49.1304 6.03696 48.7598C6.12855 48.3572 6.10938 47.8545 5.98371 47.3412C5.75367 46.3955 5.20625 45.6713 4.7483 45.6713V45.6734Z" fill="#231F20"/>
<path d="M5.18043 48.018C5.39215 47.9541 5.48854 47.653 5.39571 47.3456C5.30289 47.0381 5.05601 46.8407 4.84429 46.9046C4.63257 46.9686 4.53619 47.2696 4.62901 47.5771C4.72183 47.8845 4.96871 48.0819 5.18043 48.018Z" fill="#713817"/>
<path d="M5.09914 48.1356C4.99689 48.1356 4.89252 48.0951 4.79454 48.0184C4.67313 47.9226 4.57941 47.7756 4.52829 47.6073C4.47717 47.439 4.47504 47.2644 4.5219 47.1174C4.57302 46.9555 4.67739 46.8448 4.81584 46.8022C4.95216 46.7617 5.10126 46.7958 5.23333 46.9023C5.35474 46.9981 5.44846 47.1451 5.49958 47.3134C5.5507 47.4816 5.55283 47.6563 5.50597 47.8033C5.45485 47.9652 5.35048 48.0759 5.21203 48.1185C5.17369 48.1292 5.13535 48.1356 5.097 48.1356H5.09914ZM4.92873 46.9981C4.91169 46.9981 4.89465 47.0003 4.87761 47.0066C4.78602 47.0343 4.74342 47.1281 4.72638 47.1834C4.6923 47.2878 4.69443 47.422 4.73277 47.5477C4.77111 47.6733 4.8414 47.7862 4.92873 47.8544C4.97346 47.8906 5.06079 47.9439 5.15239 47.9162C5.24398 47.8885 5.28658 47.7948 5.30362 47.7394C5.3377 47.635 5.33557 47.5008 5.29723 47.3751C5.25889 47.2495 5.1886 47.1366 5.10127 47.0684C5.06506 47.0407 5.00115 46.9981 4.92873 46.9981Z" fill="#231F20"/>
<path d="M38.9757 9.793C35.5868 7.28383 29.4523 6.72363 25.2604 6.72363C19.9588 6.72363 13.933 7.35838 10.035 11.2201C4.55021 16.6538 4.42241 27.6511 6.16051 37.085C9.32146 54.2573 12.6784 63.5782 25.4372 63.5782C36.72 63.5782 41.2527 55.7057 43.2741 41.9031C43.5297 40.1608 43.7448 38.3225 43.928 36.3927C43.9344 36.3267 43.9407 36.2607 43.9471 36.1925C44.9759 25.2208 45.9025 14.9242 38.9757 9.793ZM28.8133 39.8327C28.2297 40.0031 27.8207 40.1693 27.8207 40.1693C27.8207 40.1437 28.6663 39.46 28.9262 38.5824C29.1286 37.8944 29.218 36.2649 29.2436 36.1563C29.2521 36.1158 29.2777 36.0903 29.2777 36.0903C29.2947 36.0711 29.3181 36.0562 29.3458 36.0498C29.5482 36.0008 30.0743 35.8837 30.5344 35.9071H30.5557C30.9306 35.939 31.0946 36.3246 31.1968 36.6356C31.3523 37.1084 31.5589 37.5579 31.6441 38.052C31.6974 38.3609 31.7272 38.7081 31.61 39.0084C31.4865 39.3258 31.1947 39.4706 30.8667 39.477C30.1595 39.4919 29.3991 39.6645 28.8133 39.8327ZM21.0643 39.8327C20.4785 39.6645 19.7181 39.4919 19.0109 39.477C18.6829 39.4706 18.3911 39.3258 18.2676 39.0084C18.1504 38.7081 18.1802 38.3609 18.2335 38.052C18.3187 37.5579 18.5253 37.1084 18.6787 36.6356C18.783 36.3246 18.9449 35.939 19.3219 35.9071H19.3432C19.8012 35.8837 20.3294 36.0008 20.5318 36.0498C20.5595 36.0562 20.5829 36.0711 20.5999 36.0903C20.5999 36.0903 20.6255 36.1158 20.634 36.1563C20.6596 36.2649 20.749 37.8944 20.9514 38.5824C21.2113 39.46 22.0569 40.1437 22.0569 40.1693C22.0569 40.1693 21.6479 40.0031 21.0643 39.8327ZM35.4931 50.0334C34.0148 52.2785 29.9891 53.8866 25.2519 53.8866C20.5147 53.8866 16.3378 52.2167 14.9298 49.9035C14.7935 49.6798 14.6806 49.4519 14.5975 49.2155C14.4676 48.864 14.4016 48.5019 14.4016 48.1292C14.4016 46.7404 15.3303 45.4666 16.8745 44.4719C19.3773 43.8691 22.0995 43.5411 24.9473 43.5411C28.17 43.5411 31.233 43.9628 33.9999 44.7233C35.3205 45.6775 36.1023 46.8554 36.1023 48.1292C36.1023 48.6255 35.9851 49.1069 35.7615 49.5648C35.6848 49.7246 35.5953 49.8801 35.4931 50.0334Z" fill="#F7BE3D" stroke="#231F20" stroke-miterlimit="10"/>
<path d="M40.5517 20.7541C37.4184 20.0257 33.1264 21.6977 30.1507 22.5306C26.1143 23.6638 22.5061 22.8629 21.2409 22.5796C17.9265 21.8468 14.4759 20.0917 10.7888 20.2302C10.3564 20.2451 9.6237 20.2983 8.85476 20.7115C7.417 21.4869 6.72474 23.0503 6.2966 24.6265C5.8706 26.1985 5.21455 29.6236 6.35624 37.085C6.58842 38.5995 7.26363 42.6977 8.86115 47.8523C8.87606 47.897 8.88884 47.9439 8.90375 47.9908C8.92931 48.076 8.957 48.1612 8.98256 48.2421C9.29355 49.2326 9.57684 50.0548 9.78771 50.6469C10.2627 50.5212 10.7441 50.387 11.2297 50.2443C11.726 50.0995 12.2308 49.9461 12.7378 49.7928C13.3512 49.6032 13.9732 49.4094 14.5973 49.2155C15.1532 49.043 15.7134 48.8726 16.2736 48.7043H16.2758C17.1129 48.453 17.95 48.2123 18.7892 47.9971H18.7913C21.0939 47.4007 23.3794 46.9833 25.5435 47.028C27.6927 47.0706 29.7567 47.5371 31.8228 48.1846H31.8249C33.1306 48.5914 34.4342 49.0749 35.7612 49.5648C36.1681 49.7161 36.5749 49.8673 36.986 50.0164H36.9903C37.5185 50.2124 38.0574 50.4062 38.5984 50.5958C39.1544 50.7896 39.7188 50.9792 40.2897 51.1538C40.426 51.1986 40.5602 51.2412 40.6965 51.2817C40.7966 50.9515 40.918 50.6362 41.0607 50.2741C41.2269 49.8588 41.4143 49.3817 41.6145 48.7469C41.6571 48.617 41.6976 48.4764 41.7402 48.3273C41.8084 48.0887 41.8787 47.831 41.9468 47.5477C42.2642 46.2484 42.8265 44.2824 43.2738 41.9032C43.5869 40.2417 43.8468 38.3737 43.9277 36.3928C43.9448 35.9923 43.9554 35.5855 43.9554 35.1765C43.964 31.5534 45.2377 21.8468 40.5517 20.7541ZM30.8664 39.4771C30.1593 39.492 29.3988 39.6645 28.8131 39.8328C28.2295 40.0032 27.8205 40.1693 27.8205 40.1693C27.8205 40.1437 28.6661 39.46 28.926 38.5824C29.1283 37.8944 29.2178 36.265 29.2434 36.1563C29.2519 36.1159 29.2774 36.0903 29.2774 36.0903C29.2945 36.0711 29.3179 36.0562 29.3456 36.0498C29.5479 36.0009 30.0741 35.8837 30.5342 35.9071H30.5555C30.9303 35.9391 31.0943 36.3246 31.1966 36.6356C31.3521 37.1085 31.5587 37.5579 31.6439 38.0521C31.6971 38.3609 31.727 38.7081 31.6098 39.0084C31.4863 39.3258 31.1945 39.4707 30.8664 39.4771ZM18.2333 38.0521C18.3185 37.5579 18.5251 37.1085 18.6784 36.6356C18.7828 36.3246 18.9447 35.9391 19.3217 35.9071H19.343C19.801 35.8837 20.3292 36.0009 20.5316 36.0498C20.5592 36.0562 20.5827 36.0711 20.5997 36.0903C20.5997 36.0903 20.6253 36.1159 20.6338 36.1563C20.6594 36.265 20.7488 37.8944 20.9512 38.5824C21.211 39.46 22.0567 40.1437 22.0567 40.1693C22.0567 40.1693 21.6477 40.0032 21.0641 39.8328C20.4783 39.6645 19.7179 39.492 19.0107 39.4771C18.6827 39.4707 18.3909 39.3258 18.2673 39.0084C18.1502 38.7081 18.18 38.3609 18.2333 38.0521Z" fill="#096936" stroke="#231F20" stroke-miterlimit="10"/>
<path d="M27.4008 15.3715C27.4008 15.3715 27.2261 17.5101 27.7693 18.1022C28.3124 18.6944 38.102 15.74 40.8348 18.1022C43.5655 20.4623 44.2301 23.783 44.2301 23.7851C43.6252 20.7605 43.7721 17.2779 41.4653 14.8518C39.1074 12.3703 36.0593 12.3022 32.9367 13.2308C27.4753 14.8539 27.4008 15.3715 27.4008 15.3715Z" fill="#713817"/>
<path d="M44.1262 23.8129C44.1262 23.8129 44.1262 23.8107 44.1262 23.8086C44.1262 23.8086 44.1262 23.8044 44.1262 23.8022C44.0772 23.5658 43.3765 20.441 40.7672 18.1832C38.9737 16.6326 34.032 17.4271 30.7603 17.9532C28.7858 18.2705 27.904 18.4026 27.6931 18.1747C27.1244 17.557 27.2884 15.4525 27.2969 15.3631V15.3567C27.3161 15.2204 27.7804 14.6538 32.9095 13.1287C36.6179 12.0253 39.4423 12.5663 41.5446 14.7794C43.3232 16.6517 43.6619 19.1417 43.9899 21.5487C44.09 22.2856 44.1944 23.0482 44.3371 23.766L44.1284 23.8107L44.1262 23.8129ZM36.9992 17.0671C38.6371 17.0671 40.0792 17.3078 40.9056 18.0235C42.5117 19.4122 43.4084 21.1248 43.8791 22.3155C43.8429 22.0684 43.811 21.8213 43.7769 21.5763C43.4553 19.2035 43.1208 16.7476 41.3891 14.9243C39.3464 12.7751 36.5923 12.2532 32.9692 13.331C28.1723 14.756 27.5717 15.3226 27.5078 15.4014C27.4609 16.0021 27.4375 17.5783 27.8507 18.0299C27.9934 18.1811 29.3822 17.9596 30.7262 17.7423C32.5708 17.4462 34.9394 17.065 36.9992 17.065V17.0671Z" fill="#231F20"/>
<path d="M20.8147 26.6735C20.9595 26.9611 21.0256 27.2912 20.9702 27.7023C20.7465 29.3318 18.9999 30.1817 17.6772 30.8249C16.1436 31.5704 14.5034 32.1498 12.8292 32.4842C12.154 32.6184 11.466 32.7143 10.7759 32.7143C6.97593 32.7143 6.08984 29.7194 6.08984 26.6139C6.08984 23.5083 9.49149 21.3548 13.2339 22.0492C14.9018 22.3581 16.4567 23.1483 17.8518 24.0877C18.4397 24.4838 19.0063 24.9141 19.5495 25.3699C20.0458 25.7874 20.5548 26.158 20.8147 26.6714V26.6735Z" fill="#0E4221"/>
<path d="M10.776 32.8207C7.59583 32.8207 5.9834 30.7333 5.9834 26.6138C5.9834 25.3166 6.57128 24.1132 7.64056 23.225C9.07193 22.0364 11.17 21.5572 13.2532 21.9448C14.7463 22.2217 16.2714 22.8948 17.9115 24.0003C18.4866 24.388 19.0596 24.8204 19.6177 25.289C19.688 25.3465 19.7561 25.404 19.8264 25.4615C20.2631 25.8215 20.6763 26.1623 20.9106 26.6245C21.0768 26.9568 21.1321 27.3125 21.0768 27.7151C20.8446 29.3999 19.0426 30.2775 17.7262 30.9165C16.1159 31.7003 14.4758 32.2605 12.8506 32.5864C12.0561 32.7462 11.3958 32.8186 10.776 32.8186V32.8207ZM11.8303 22.0258C10.2946 22.0258 8.84189 22.5029 7.77688 23.389C6.75873 24.2367 6.1964 25.3806 6.1964 26.6138C6.1964 30.646 7.69381 32.6077 10.776 32.6077C11.383 32.6077 12.0284 32.5353 12.808 32.3798C14.414 32.0582 16.0371 31.5044 17.6304 30.729C18.9041 30.1092 20.6465 29.2615 20.8638 27.6895C20.9127 27.3317 20.8637 27.0143 20.7189 26.7246C20.5059 26.3028 20.1097 25.9748 19.6901 25.6298C19.6198 25.5723 19.5495 25.5147 19.4792 25.4551C18.9276 24.9908 18.3588 24.5626 17.7901 24.1792C16.1734 23.0908 14.676 22.4283 13.2106 22.1557C12.7462 22.0705 12.284 22.0279 11.8261 22.0279L11.8303 22.0258Z" fill="#231F20"/>
<path d="M29.0519 26.8055C28.9071 27.093 28.8411 27.4232 28.8964 27.8343C29.1201 29.4637 30.8667 30.3136 32.1895 30.9569C33.7231 31.7024 35.3632 32.2818 37.0374 32.6162C37.7126 32.7504 38.4006 32.8462 39.0907 32.8462C42.8907 32.8462 43.7768 29.8514 43.7768 26.7458C43.7768 23.6402 40.3751 21.4868 36.6327 22.1812C34.9649 22.49 33.41 23.2803 32.0148 24.2196C31.4269 24.6158 30.8603 25.0461 30.3172 25.5019C29.8209 25.9194 29.3118 26.29 29.0519 26.8033V26.8055Z" fill="#0E4221"/>
<path d="M39.0911 32.9528C38.4691 32.9528 37.811 32.8782 37.0165 32.7206C35.3912 32.3968 33.7533 31.8345 32.143 31.0528C30.8266 30.4116 29.0246 29.5362 28.7903 27.8492C28.7349 27.4466 28.7903 27.0888 28.9564 26.7586C29.1886 26.2964 29.6018 25.9556 30.0406 25.5956C30.1109 25.5381 30.1791 25.4806 30.2494 25.4231C30.8074 24.9545 31.3825 24.52 31.9555 24.1344C33.5978 23.029 35.1207 22.3559 36.6139 22.079C38.6992 21.6913 40.7972 22.1706 42.2286 23.3591C43.2979 24.2473 43.8858 25.4508 43.8858 26.748C43.8858 30.8653 42.2734 32.9549 39.0932 32.9549L39.0911 32.9528ZM38.0367 22.1578C37.5809 22.1578 37.1166 22.2004 36.6522 22.2856C35.1889 22.5582 33.6894 23.2185 32.0727 24.3091C31.504 24.6925 30.9374 25.1206 30.3836 25.585C30.3133 25.6446 30.243 25.7021 30.1727 25.7597C29.7531 26.1047 29.3569 26.4306 29.1439 26.8545C28.9969 27.1463 28.9501 27.4616 28.999 27.8194C29.2163 29.3914 30.9587 30.2391 32.2324 30.8589C33.8278 31.6343 35.4488 32.1902 37.0569 32.5097C37.8365 32.6652 38.4819 32.7376 39.089 32.7376C42.1711 32.7376 43.6685 30.778 43.6685 26.7437C43.6685 25.5104 43.1083 24.3666 42.088 23.5189C41.023 22.6328 39.5704 22.1557 38.0346 22.1557L38.0367 22.1578Z" fill="#231F20"/>
<path d="M22.5471 15.3716C22.5471 15.3716 22.7218 17.5102 22.1786 18.1023C21.6354 18.6945 11.8459 15.7401 9.11303 18.1023C6.38234 20.4624 5.71777 23.7831 5.71777 23.7852C6.3227 20.7606 6.17573 17.278 8.48254 14.8519C10.8405 12.3704 13.8885 12.3023 17.0112 13.231C22.4725 14.854 22.5471 15.3716 22.5471 15.3716Z" fill="#713817"/>
<path d="M5.82202 23.8086L5.61328 23.766C5.75812 23.0482 5.86037 22.2857 5.96048 21.5487C6.2885 19.1418 6.62504 16.6518 8.40574 14.7795C10.5081 12.5664 13.3325 12.0275 17.0409 13.1287C22.17 14.6538 22.6322 15.2183 22.6513 15.3567V15.3631C22.6599 15.4526 22.8239 17.557 22.2552 18.1747C22.0464 18.4026 21.1646 18.2727 19.1879 17.9532C15.9162 17.4271 10.9724 16.6326 9.18107 18.1832C6.51002 20.4922 5.82628 23.7746 5.81989 23.8065L5.82202 23.8086ZM13.6158 12.79C11.5859 12.79 9.91593 13.4993 8.56123 14.9264C6.82952 16.7497 6.49511 19.2035 6.17348 21.5785C6.1394 21.8299 6.10532 22.0833 6.06911 22.3368C6.54197 21.1397 7.44297 19.4101 9.04475 18.0235C10.9128 16.4089 15.9141 17.212 19.2241 17.7445C20.5682 17.9596 21.957 18.1832 22.0997 18.032C22.5129 17.5804 22.4895 16.0042 22.4426 15.4036C22.3787 15.3248 21.778 14.7603 16.9812 13.3332C15.7628 12.9711 14.6446 12.79 13.6158 12.79Z" fill="#231F20"/>
<path d="M30.4033 27.174C30.2776 27.2272 30.3117 27.4104 30.448 27.4147C32.4843 27.4978 33.8433 28.0665 34.7123 28.5734C36.5867 29.6661 37.3301 31.1422 39.1577 31.2019C39.3898 31.2104 40.3824 31.2317 41.2749 30.5884C42.3911 29.7833 42.8277 28.2795 42.8277 26.633C42.8277 25.0014 42.2036 23.504 40.981 22.6903C40.7147 22.5135 39.8627 22.0002 38.7232 22.0534C36.853 22.1407 36.0478 23.668 33.6707 25.3613C32.921 25.8938 31.8432 26.5669 30.4011 27.174H30.4033Z" fill="#F7BE3D"/>
<path d="M39.2752 31.368C39.2305 31.368 39.19 31.368 39.1516 31.368C37.9354 31.3275 37.1835 30.6949 36.3145 29.9622C35.816 29.5426 35.3027 29.1102 34.6317 28.7183C33.4496 28.0281 32.0395 27.6447 30.442 27.5808C30.3057 27.5744 30.1949 27.4786 30.1715 27.3465C30.148 27.2145 30.2183 27.0845 30.3419 27.0334C31.5049 26.5435 32.5954 25.9407 33.5816 25.2378C34.3847 24.6669 35.0045 24.1153 35.554 23.6275C36.6425 22.6605 37.4285 21.9618 38.7193 21.9C39.8247 21.8489 40.6661 22.2941 41.0729 22.5646C42.2913 23.374 42.99 24.8608 42.99 26.6393C42.99 27.9706 42.7088 29.7598 41.369 30.7247C40.6086 31.2743 39.7736 31.3723 39.2752 31.3723V31.368ZM30.6017 27.2634C32.1907 27.3486 33.6008 27.7427 34.7915 28.4371C35.4859 28.8418 36.0354 29.3061 36.5189 29.713C37.3773 30.4372 38.0547 31.008 39.1623 31.0442C39.5926 31.0591 40.4297 31.0016 41.1816 30.4606C42.4106 29.5745 42.6683 27.8897 42.6683 26.633C42.6683 24.9609 42.0208 23.5742 40.894 22.8223C40.5213 22.5731 39.7417 22.1642 38.732 22.211C37.5541 22.2664 36.8044 22.9331 35.7649 23.8575C35.2111 24.3496 34.5827 24.9076 33.767 25.4891C32.7999 26.1771 31.7349 26.7735 30.6039 27.2613L30.6017 27.2634Z" fill="#231F20"/>
<path d="M39.8788 30.5633C41.5739 30.2335 42.6054 28.2044 42.1825 26.0312C41.7597 23.858 40.0428 22.3637 38.3476 22.6935C36.6525 23.0233 35.6211 25.0524 36.0439 27.2256C36.4667 29.3988 38.1837 30.8931 39.8788 30.5633Z" fill="#EFD1A5"/>
<path d="M39.4078 30.7162C37.8273 30.7162 36.3299 29.2657 35.938 27.2464C35.7293 26.1729 35.8592 25.0972 36.3044 24.2196C36.7538 23.3336 37.4716 22.7542 38.3258 22.588C39.1778 22.4219 40.0617 22.6903 40.8115 23.3421C41.5528 23.9875 42.0767 24.9353 42.2876 26.0089C42.4964 27.0824 42.3664 28.1581 41.9212 29.0356C41.4718 29.9217 40.754 30.5011 39.8999 30.6672C39.7358 30.6992 39.5718 30.7141 39.41 30.7141L39.4078 30.7162ZM38.8221 22.7542C38.6708 22.7542 38.5175 22.7691 38.3662 22.7989C37.5781 22.9523 36.9136 23.4912 36.494 24.3176C36.0701 25.1526 35.9465 26.1793 36.1468 27.2059C36.5579 29.3189 38.2235 30.778 39.8573 30.4606C40.6454 30.3073 41.3099 29.7684 41.7295 28.9419C42.1534 28.1069 42.277 27.0803 42.0767 26.0536C41.8765 25.0248 41.3781 24.1217 40.6709 23.5061C40.1065 23.0141 39.4632 22.7563 38.8221 22.7563V22.7542Z" fill="#231F20"/>
<path d="M38.8997 28.2777C39.6683 28.1764 40.194 27.3558 40.074 26.445C39.9539 25.5341 39.2335 24.8778 38.4649 24.9791C37.6963 25.0805 37.1706 25.901 37.2907 26.8119C37.4107 27.7227 38.1312 28.379 38.8997 28.2777Z" fill="black"/>
<path d="M38.7459 28.714C37.8279 28.714 37.01 27.928 36.8694 26.8672C36.7181 25.7255 37.4104 24.6882 38.4094 24.5562C39.4084 24.4241 40.3456 25.2463 40.4968 26.388C40.648 27.5297 39.9558 28.567 38.9568 28.6991C38.8865 28.7076 38.8162 28.7118 38.7459 28.7118V28.714ZM38.6224 25.3954C38.5883 25.3954 38.5542 25.3975 38.5201 25.4018C37.9855 25.4721 37.6234 26.0791 37.7129 26.7565C37.8023 27.4338 38.3071 27.928 38.8439 27.8556C39.3785 27.7853 39.7406 27.1782 39.6512 26.5009C39.5681 25.8683 39.1187 25.3954 38.6224 25.3954Z" fill="#231F20"/>
<path d="M18.8447 27.0399C19.0428 27.1272 18.9917 27.419 18.7744 27.4339C16.9256 27.5617 15.6689 28.0964 14.8488 28.5756C12.9744 29.6683 12.231 31.1444 10.4034 31.2041C10.1713 31.2126 9.17867 31.2339 8.28619 30.5906C7.17005 29.7855 6.7334 28.2817 6.7334 26.6352C6.7334 24.9887 7.3575 23.5062 8.58013 22.6925C8.84638 22.5157 9.69839 22.0024 10.838 22.0556C12.7081 22.1429 13.5133 23.6702 15.8904 25.3635C16.5848 25.8577 17.5603 26.4712 18.849 27.042L18.8447 27.0399Z" fill="#F7BE3D"/>
<path d="M10.2841 31.3681C9.7878 31.3681 8.95283 31.2701 8.19028 30.7205C6.8505 29.7535 6.56934 27.9664 6.56934 26.6351C6.56934 24.8544 7.26798 23.3698 8.48636 22.5604C8.89319 22.2899 9.73881 21.8426 10.84 21.8958C12.1308 21.9555 12.9168 22.6541 14.0053 23.6233C14.5527 24.1111 15.1746 24.6627 15.9777 25.2336C16.8765 25.8726 17.8627 26.4328 18.9086 26.895C19.0662 26.9653 19.1514 27.125 19.1216 27.2933C19.0917 27.4616 18.9554 27.583 18.785 27.5958C17.326 27.698 16.0288 28.075 14.9297 28.7162C14.2587 29.1081 13.7433 29.5405 13.247 29.9601C12.3779 30.6928 11.626 31.3255 10.4098 31.3659C10.3714 31.3659 10.331 31.3659 10.2862 31.3659L10.2841 31.3681ZM10.6675 22.2089C9.73668 22.2089 9.02099 22.5881 8.66741 22.8245C7.54063 23.5743 6.8931 24.9631 6.8931 26.6351C6.8931 27.8919 7.15083 29.5746 8.37986 30.4628C9.13176 31.0038 9.96885 31.0613 10.3991 31.0464C11.5046 31.0102 12.1841 30.4372 13.0403 29.7152C13.5239 29.3062 14.0734 28.844 14.7678 28.4393C15.9095 27.7726 17.2535 27.3828 18.7637 27.2763C18.7893 27.2763 18.8042 27.2614 18.8085 27.2379C18.8127 27.2145 18.8042 27.1975 18.7808 27.1868C17.7158 26.714 16.7104 26.1452 15.7945 25.4934C14.9787 24.912 14.3503 24.3539 13.7965 23.8618C12.7571 22.9374 12.0052 22.2707 10.8294 22.2153C10.7761 22.2132 10.7229 22.2111 10.6696 22.2111L10.6675 22.2089Z" fill="#231F20"/>
<path d="M13.4475 27.1129C13.9516 24.9571 12.997 22.8907 11.3154 22.4976C9.63383 22.1044 7.86203 23.5333 7.35798 25.6891C6.85393 27.8449 7.8085 29.9113 9.49007 30.3044C11.1716 30.6976 12.9434 29.2687 13.4475 27.1129Z" fill="#EFD1A5"/>
<path d="M10.0521 30.4798C9.85611 30.4798 9.66015 30.4585 9.46631 30.4116C7.73034 30.0048 6.73775 27.8769 7.25535 25.6681C7.50456 24.603 8.06263 23.6744 8.82944 23.0567C9.60264 22.4326 10.4951 22.1983 11.3407 22.3963C12.1864 22.5944 12.8829 23.1994 13.2982 24.1025C13.7115 24.995 13.8009 26.0749 13.5517 27.1399C13.0937 29.1017 11.5963 30.4777 10.0521 30.4777V30.4798ZM10.7486 22.5433C10.1373 22.5433 9.51744 22.7776 8.9615 23.2249C8.23303 23.8128 7.6984 24.6989 7.45983 25.7192C6.96993 27.8151 7.8901 29.828 9.51317 30.2071C11.1363 30.5863 12.8531 29.189 13.343 27.0952C13.5815 26.0749 13.4963 25.0461 13.1044 24.1941C12.7167 23.3527 12.0713 22.7883 11.2917 22.6051C11.1128 22.5625 10.9318 22.5433 10.7486 22.5433Z" fill="#231F20"/>
<path d="M12.2702 26.5891C12.3903 25.6782 11.8646 24.8577 11.096 24.7564C10.3274 24.655 9.60704 25.3113 9.48696 26.2222C9.36688 27.1331 9.89259 27.9536 10.6612 28.0549C11.4298 28.1562 12.1502 27.5 12.2702 26.5891Z" fill="black"/>
<path d="M10.8208 28.4903C10.7484 28.4903 10.6781 28.4861 10.6057 28.4754C9.60669 28.3434 8.91443 27.306 9.06566 26.1643C9.21689 25.0227 10.1541 24.2005 11.1531 24.3325C11.6515 24.3986 12.086 24.684 12.3757 25.1377C12.6505 25.5679 12.7634 26.1026 12.6931 26.6436C12.6228 27.1846 12.3736 27.6703 11.9966 28.0153C11.6558 28.3263 11.2447 28.4903 10.8229 28.4903H10.8208ZM9.90915 26.2772C9.81969 26.9546 10.1818 27.5616 10.7164 27.6319C10.9614 27.6639 11.2127 27.5766 11.4215 27.387C11.6515 27.1782 11.8027 26.8736 11.8475 26.5328C11.8922 26.192 11.824 25.8598 11.6579 25.5978C11.5045 25.3592 11.2851 25.2101 11.0402 25.1781C10.5056 25.1079 9.99861 25.5999 9.90915 26.2772Z" fill="#231F20"/>
<path d="M33.2863 33.9283C36.7327 34.2755 40.5752 33.0827 43.7319 34.7675L43.7234 35.6259C40.9075 33.924 36.5069 34.6823 33.2607 34.1477L33.2863 33.9262V33.9283Z" fill="#D2B88F"/>
<path d="M33.3604 34.6461C34.7406 35.9199 36.5341 36.6718 38.4043 36.7996C40.3447 36.9593 42.0317 36.7548 43.5313 38.2395L43.3736 39.5452C42.8177 38.9147 41.906 38.4205 41.0455 38.1521C39.2712 37.5983 37.1582 37.5898 35.4904 36.6079C34.6256 36.1307 33.8396 35.5386 33.1836 34.8037L33.3583 34.6461H33.3604Z" fill="#D2B88F"/>
<path d="M33.4055 35.807C33.6995 37.2703 35.0052 38.3183 36.3897 38.7187C38.9521 39.411 41.0183 39.7326 43.1036 41.5943L42.8501 42.8808C41.5827 41.4771 39.393 40.6251 37.606 39.9435C36.6389 39.5921 35.5505 39.2683 34.7304 38.5803C33.8784 37.8966 33.2501 36.9231 33.1436 35.8283L33.4055 35.807Z" fill="#D2B88F"/>
<path d="M17.1769 33.9283C13.7305 34.2755 9.43422 33.1487 6.27539 34.8357L6.37763 35.7516C9.19353 34.0497 13.9584 34.6845 17.2045 34.1498L17.179 33.9283H17.1769Z" fill="#D2B88F"/>
<path d="M17.1043 34.6462C15.7241 35.9199 13.9306 36.6718 12.0604 36.7996C10.12 36.9594 8.35208 36.8231 6.85254 38.3055L7.08897 39.5431C7.64491 38.9126 8.55656 38.4184 9.41709 38.1501C11.1914 37.5963 13.3044 37.5877 14.9722 36.6058C15.837 36.1287 16.623 35.5365 17.279 34.8017L17.1043 34.644V34.6462Z" fill="#D2B88F"/>
<path d="M17.0594 35.807C16.7655 37.2703 15.4598 38.3183 14.0753 38.7187C11.5129 39.411 9.50637 39.7028 7.41895 41.5623L7.69798 42.7956C8.96534 41.3919 11.0698 40.6251 12.8569 39.9435C13.8239 39.5921 14.9124 39.2683 15.7324 38.5803C16.5844 37.8966 17.2128 36.9231 17.3193 35.8283L17.0573 35.807H17.0594Z" fill="#D2B88F"/>
<path d="M24.8262 12.9923C23.8081 12.9923 21.6674 12.9923 20.334 11.3841C19.2669 10.0997 19.3883 8.56611 19.3883 7.00693C19.3883 5.80346 19.2669 4.63621 19.7099 3.486C20.104 2.46572 20.8346 1.51998 21.7867 0.968306C22.2084 0.723354 22.9667 0.39746 23.8805 0.269659C24.4045 0.197238 24.8326 0.207888 25.0989 0.216408C25.5589 0.231318 26.1468 0.250489 26.8519 0.469881C27.1501 0.563602 27.7848 0.768085 28.4494 1.29207C29.2907 1.95664 29.7168 2.76818 29.9212 3.2879C30.1534 3.87792 30.2109 4.37422 30.2535 4.91098C30.3302 5.87801 30.3835 7.29661 30.2535 9.10926C30.1854 9.65242 29.983 10.5641 29.3078 11.382C27.9808 12.988 25.8465 12.988 24.8283 12.9902L24.8262 12.9923Z" fill="#096936"/>
<path d="M24.7496 13.2074C23.6676 13.2074 21.5375 13.1712 20.1679 11.5226C19.1519 10.2978 19.1604 8.84515 19.1711 7.44146C19.1711 7.29662 19.1711 7.15391 19.1711 7.00907C19.1711 6.79819 19.1668 6.58732 19.1626 6.37645C19.1455 5.40303 19.1264 4.39553 19.5076 3.41146C19.94 2.29106 20.7303 1.33468 21.676 0.787268C21.9018 0.657336 22.7218 0.21855 23.8465 0.0609285C24.3982 -0.0157524 24.8561 -0.000841061 25.1011 0.00554901C25.5548 0.0204592 26.1789 0.0396273 26.9095 0.26967C27.197 0.359131 27.868 0.570003 28.5751 1.12807C29.4357 1.80755 29.8872 2.63613 30.113 3.21337C30.358 3.83746 30.4176 4.36784 30.4581 4.89822C30.5646 6.23587 30.5646 7.65873 30.4581 9.12844C30.3409 10.0529 29.998 10.8751 29.4655 11.5205C28.0746 13.2032 25.8785 13.2053 24.822 13.2053H24.7454L24.7496 13.2074ZM24.7667 0.425164C24.5366 0.425164 24.2405 0.435812 23.9104 0.482672C22.8624 0.629644 22.102 1.03435 21.8933 1.15576C21.0285 1.65632 20.3064 2.53389 19.9081 3.56482C19.5587 4.47221 19.5737 5.39451 19.5928 6.37006C19.5971 6.58306 19.6013 6.79606 19.6013 7.00907C19.6013 7.15391 19.6013 7.30088 19.6013 7.44572C19.5907 8.8345 19.5822 10.1466 20.5002 11.2521C21.774 12.7857 23.8358 12.7814 24.8284 12.7836C25.8189 12.7836 27.8808 12.7814 29.1439 11.2521C29.6252 10.6685 29.9362 9.92081 30.0427 9.08797C30.145 7.65021 30.145 6.24865 30.0427 4.93443C30.0023 4.41683 29.949 3.94183 29.7254 3.37099C29.5187 2.84487 29.1055 2.08445 28.3195 1.46461C27.6741 0.955538 27.0543 0.759575 26.7902 0.678634C26.115 0.465632 25.5484 0.448593 25.0947 0.433683C25.0095 0.431553 24.9009 0.427293 24.7688 0.427293L24.7667 0.425164Z" fill="#231F20"/>
<path d="M24.8191 7.82274C27.4283 7.82274 29.5435 6.23683 29.5435 4.28051C29.5435 2.32419 27.4283 0.738281 24.8191 0.738281C22.2099 0.738281 20.0947 2.32419 20.0947 4.28051C20.0947 6.23683 22.2099 7.82274 24.8191 7.82274Z" fill="#0C4220"/>
<path d="M24.8192 7.93137C22.1566 7.93137 19.9883 6.29339 19.9883 4.28264C19.9883 2.2719 22.1545 0.633911 24.8192 0.633911C27.4838 0.633911 29.6501 2.2719 29.6501 4.28264C29.6501 6.29339 27.4838 7.93137 24.8192 7.93137ZM24.8192 0.844785C22.2738 0.844785 20.2013 2.38692 20.2013 4.28051C20.2013 6.1741 22.2717 7.71624 24.8192 7.71624C27.3667 7.71624 29.4371 6.1741 29.4371 4.28051C29.4371 2.38692 27.3667 0.844785 24.8192 0.844785Z" fill="#231F20"/>
<path d="M49.2463 34.2145C49.3629 32.8608 49.1001 31.7326 48.6594 31.6947C48.2187 31.6567 47.767 32.7234 47.6504 34.0771C47.5339 35.4308 47.7967 36.559 48.2374 36.5969C48.6781 36.6348 49.1298 35.5682 49.2463 34.2145Z" fill="#0C4220"/>
<path d="M48.2635 36.7101C48.2529 36.7101 48.2422 36.7101 48.2295 36.7101C47.6416 36.659 47.4392 35.315 47.5457 34.0753C47.6522 32.8356 48.091 31.5427 48.6704 31.596C49.2583 31.6471 49.4606 32.9911 49.3541 34.2308C49.2497 35.447 48.8323 36.7123 48.2635 36.7123V36.7101ZM48.2486 36.495C48.5681 36.5206 49.024 35.5919 49.1432 34.2095C49.2625 32.8271 48.9814 31.8324 48.6533 31.8047C48.3338 31.7813 47.878 32.7078 47.7587 34.0902C47.6394 35.4726 47.9206 36.4652 48.2486 36.495Z" fill="#231F20"/>
<path d="M1.5719 36.6161C2.01326 36.587 2.29863 35.4644 2.20929 34.1086C2.11995 32.7528 1.68974 31.6773 1.24838 31.7064C0.807014 31.7355 0.521642 32.8581 0.610979 34.2139C0.700317 35.5697 1.13053 36.6452 1.5719 36.6161Z" fill="#0C4220"/>
<path d="M1.55124 36.7229C1.29351 36.7229 1.05495 36.4652 0.858986 35.9732C0.673674 35.5088 0.548003 34.8868 0.503272 34.2201C0.458542 33.5534 0.503273 32.9208 0.626814 32.4352C0.761006 31.9048 0.974007 31.6173 1.24026 31.5981C1.51077 31.581 1.75573 31.8388 1.95808 32.3457C2.14339 32.8101 2.26906 33.432 2.31379 34.0987C2.39473 35.3405 2.16469 36.6803 1.5768 36.7187C1.5768 36.7187 1.55976 36.7187 1.55124 36.7187V36.7229ZM1.26582 31.8132C1.26582 31.8132 1.25943 31.8132 1.25517 31.8132C1.09542 31.8239 0.937798 32.0773 0.833427 32.4884C0.716275 32.9506 0.673674 33.562 0.716275 34.2052C0.758875 34.8506 0.880286 35.4492 1.05708 35.8922C1.2147 36.2884 1.40853 36.5163 1.56403 36.5078C1.89205 36.4865 2.19238 35.4982 2.10292 34.1136C2.06032 33.4682 1.93891 32.8697 1.76212 32.4267C1.60663 32.039 1.42344 31.8111 1.26582 31.8111V31.8132Z" fill="#231F20"/>
<path d="M24.8192 5.8313C25.8509 5.8313 26.6872 5.13704 26.6872 4.28064C26.6872 3.42423 25.8509 2.72998 24.8192 2.72998C23.7875 2.72998 22.9512 3.42423 22.9512 4.28064C22.9512 5.13704 23.7875 5.8313 24.8192 5.8313Z" fill="#713817"/>
<path d="M24.8193 5.93773C23.7308 5.93773 22.8447 5.19435 22.8447 4.28057C22.8447 3.36679 23.7308 2.62341 24.8193 2.62341C25.9077 2.62341 26.7938 3.36679 26.7938 4.28057C26.7938 5.19435 25.9077 5.93773 24.8193 5.93773ZM24.8193 2.83855C23.848 2.83855 23.0577 3.48607 23.0577 4.2827C23.0577 5.07933 23.848 5.72686 24.8193 5.72686C25.7905 5.72686 26.5808 5.07933 26.5808 4.2827C26.5808 3.48607 25.7905 2.83855 24.8193 2.83855Z" fill="#231F20"/>
<path d="M15.8348 56.1465L12.9678 52.8918L14.5823 51.6266L15.8348 56.1465Z" fill="#EFD1A5"/>
<path d="M16.0606 56.5641L12.8145 52.877L14.642 51.4435L16.0606 56.5641ZM13.1233 52.9068L15.6069 55.7291L14.5206 51.8098L13.1212 52.9068H13.1233Z" fill="#231F20"/>
<path d="M35.6035 56.3811L38.0126 52.7749L36.2447 51.7355L35.6035 56.3811Z" fill="#EFD1A5"/>
<path d="M35.4355 56.8262L36.1619 51.5629L38.1641 52.7429L35.4355 56.8283V56.8262ZM36.3302 51.9079L35.7742 55.9379L37.8638 52.8111L36.3323 51.9079H36.3302Z" fill="#231F20"/>
<path d="M27.5401 59.7464L22.9648 59.6995L25.2781 57.2841L27.5401 59.7464Z" fill="#EFD1A5"/>
<path d="M27.7849 59.855L22.7197 59.8017L25.28 57.1285L27.7849 59.855ZM23.2118 59.5951L27.2929 59.6377L25.2736 57.4417L23.2096 59.5951H23.2118Z" fill="#231F20"/>
<path d="M20.8076 58.954L17.127 57.1605L20.158 55.6141L20.8076 58.954Z" fill="#EFD1A5"/>
<path d="M20.9549 59.1435L16.8887 57.1626L20.2371 55.4543L20.9549 59.1435ZM17.3658 57.1584L20.6631 58.7644L20.0816 55.7717L17.3658 57.1562V57.1584Z" fill="#231F20"/>
<path d="M8.8291 47.4986C12.808 44.9916 18.3077 40.7997 24.7255 40.7997C31.1432 40.7997 37.7527 45.6242 41.7422 48.3272L8.83123 47.4986H8.8291Z" fill="#1F3326"/>
<path d="M42.1003 48.4444L8.47363 47.5966L8.77183 47.4092C9.27452 47.0918 9.79851 46.751 10.3544 46.3889C14.246 43.8521 19.0897 40.6932 24.7257 40.6932C30.8517 40.6932 36.7518 44.7616 40.6562 47.4539C41.0566 47.7308 41.44 47.995 41.8021 48.2399L42.1025 48.4444H42.1003ZM9.1808 47.4028L41.3804 48.2144C41.1077 48.0269 40.8244 47.8331 40.5326 47.6307C36.6496 44.9533 30.7835 40.9084 24.7236 40.9084C19.1514 40.9084 14.3376 44.048 10.4695 46.57C10.0222 46.8618 9.59402 47.1408 9.1808 47.4049V47.4028Z" fill="#231F20"/>
<path d="M34 57.3991L30.2959 59.1479L30.9882 55.8165L34 57.3991Z" fill="#EFD1A5"/>
<path d="M30.1484 59.3353L30.911 55.6567L34.2381 57.4055L30.1484 59.3374V59.3353ZM31.0622 55.9762L30.4424 58.9604L33.761 57.3948L31.0622 55.9762Z" fill="#231F20"/>
<path d="M40.6734 52.6512C40.6159 52.862 40.5498 53.0729 40.4838 53.2795C38.5497 59.2159 33.1097 63.5697 25.4522 63.7805C17.6925 63.9935 11.3621 58.6706 10.2694 52.649C10.2417 52.5021 10.2183 52.3572 10.1991 52.2081C10.0947 51.4626 9.00631 49.8459 9.48556 49.2303C9.76033 48.8768 11.6071 49.5349 11.7647 49.1451C11.9393 48.7127 12.6018 48.8555 12.5805 49.3219C12.5762 49.4327 12.5741 49.5413 12.5741 49.6521C12.5741 49.699 12.5741 49.7458 12.5762 49.7948C12.5847 50.3017 12.6401 50.8002 12.7466 51.2837C13.7541 56.0699 19.1261 59.7228 25.6035 59.7228C32.0809 59.7228 36.9778 56.3808 38.3005 51.9078C38.4283 51.4797 38.5199 51.043 38.571 50.5957C38.5902 50.4381 38.6051 50.2804 38.6136 50.1228C38.6243 49.9652 38.6286 49.8076 38.6286 49.6521V49.6308C38.6286 49.2516 39.1547 49.1515 39.2803 49.5073C39.3592 49.7245 39.487 49.9524 39.6339 50.1867C39.8341 50.502 40.0684 50.8279 40.2708 51.1559C40.5818 51.665 40.8054 52.1762 40.6734 52.6512Z" fill="#D22D27"/>
<path d="M24.983 64C16.9166 64 11.0803 58.3149 10.0579 52.6853C10.0302 52.5362 10.0046 52.3871 9.98547 52.2337C9.95352 52.0037 9.80015 51.6458 9.6404 51.2667C9.28895 50.4445 8.92684 49.5946 9.31451 49.0962C9.52538 48.8257 10.06 48.8981 10.6756 48.9833C10.9674 49.0238 11.4467 49.0898 11.5745 49.0365C11.698 48.7618 11.9877 48.6169 12.2902 48.6829C12.599 48.7511 12.8056 49.0152 12.7907 49.3262C12.7864 49.4327 12.7843 49.5392 12.7843 49.6457C12.7843 49.6905 12.7843 49.7352 12.7843 49.7778C12.7928 50.2805 12.8482 50.7682 12.9505 51.2326C13.9601 56.0251 19.2788 59.5035 25.5985 59.5035C31.5243 59.5035 36.7769 56.2807 38.0911 51.8418C38.2168 51.4158 38.3063 50.9855 38.3553 50.5659C38.3766 50.3976 38.3893 50.2485 38.3979 50.1058C38.4085 49.9588 38.4128 49.8097 38.4128 49.6457V49.6244C38.4128 49.3475 38.6023 49.1217 38.875 49.0749C39.1412 49.0301 39.3883 49.175 39.4799 49.4285C39.5438 49.601 39.6482 49.8055 39.8122 50.0675C39.8995 50.2038 39.9933 50.3444 40.0891 50.4871C40.2105 50.6681 40.3362 50.8534 40.4491 51.0366C40.7345 51.5031 41.0391 52.1123 40.8751 52.7023C40.8197 52.9004 40.7579 53.107 40.6834 53.3392C38.6087 59.7058 32.7746 63.787 25.4558 63.9872C25.2961 63.9914 25.1385 63.9936 24.9808 63.9936L24.983 64ZM9.8534 49.3326C9.75542 49.3326 9.67874 49.3411 9.64466 49.3667C9.41675 49.6606 9.77246 50.4935 10.0323 51.1027C10.2049 51.5074 10.3689 51.8908 10.4093 52.1783C10.4285 52.3253 10.4519 52.4659 10.4796 52.6086C11.4893 58.1701 17.3617 63.7955 25.4494 63.5676C32.5829 63.3716 38.2679 59.4034 40.2829 53.2135C40.349 53.009 40.4129 52.8024 40.4704 52.5937C40.5897 52.1613 40.3298 51.6565 40.0912 51.2645C39.9805 51.0856 39.8612 50.9067 39.7419 50.7299C39.6439 50.5851 39.5481 50.4402 39.4565 50.2996C39.2733 50.0057 39.1583 49.7842 39.0837 49.5776C39.0539 49.4945 38.9879 49.4924 38.9517 49.4987C38.9261 49.503 38.843 49.5243 38.843 49.6266V49.6478C38.843 49.8225 38.8388 49.9801 38.8281 50.1335C38.8196 50.2826 38.8047 50.4424 38.7834 50.6191C38.7323 51.0622 38.6386 51.5138 38.5044 51.9653C37.1156 56.6556 31.8097 59.9316 25.6028 59.9316C19.0828 59.9316 13.5873 56.3106 12.5372 51.3242C12.4307 50.8343 12.3711 50.3188 12.3626 49.7948C12.3626 49.7501 12.3604 49.699 12.3604 49.65C12.3604 49.5371 12.3626 49.4242 12.3668 49.3113C12.3732 49.1516 12.2412 49.1111 12.2007 49.1026C12.1709 49.0962 12.0218 49.0727 11.9621 49.224C11.8194 49.5754 11.2912 49.503 10.6202 49.4093C10.4115 49.3795 10.0771 49.3347 9.85553 49.3347L9.8534 49.3326Z" fill="#231F20"/>
<path d="M29.3605 30.499C28.5532 29.9559 28.6555 29.1443 27.731 27.6299C27.2198 26.7928 26.8215 25.9344 25.7842 25.6852C24.9897 25.4956 23.8672 25.5084 23.2388 26.0984C22.7872 26.5223 22.5231 27.1016 22.2185 27.6299C21.2728 29.2636 21.3303 29.9985 20.5869 30.499C19.1619 31.4597 15.3513 30.8909 15.1895 41.3621C15.1895 41.3621 16.6059 41.5198 18.2503 41.7818C18.2524 41.7839 18.2567 41.7839 18.2609 41.7839C20.129 42.0864 22.2888 42.5294 23.0003 43.047H26.9472L26.9578 43.0406C26.9578 43.0406 26.9621 43.0385 26.9642 43.0363C27.124 42.9235 27.3519 42.8127 27.6288 42.7105H27.6309C27.7119 42.6785 27.7971 42.6487 27.8865 42.6167C27.9078 42.6103 27.9334 42.6039 27.959 42.5954C28.8365 42.31 30.0549 42.0608 31.22 41.8627C31.2264 41.8606 31.2349 41.8584 31.2434 41.8584C33.0731 41.5475 34.758 41.3621 34.758 41.3621C34.5961 30.8909 30.7855 31.4597 29.3605 30.499ZM21.0641 39.8328C20.4783 39.6645 19.7179 39.492 19.0107 39.4771C18.6827 39.4707 18.3909 39.3258 18.2673 39.0085C18.1502 38.7081 18.18 38.3609 18.2333 38.0521C18.3185 37.5579 18.5251 37.1085 18.6784 36.6356C18.7828 36.3246 18.9447 35.9391 19.3217 35.9072H19.343C19.801 35.8837 20.3292 36.0009 20.5316 36.0499C20.5592 36.0563 20.5827 36.0712 20.5997 36.0903C20.5997 36.0903 20.6253 36.1159 20.6338 36.1564C20.6594 36.265 20.7488 37.8945 20.9512 38.5825C21.211 39.46 22.0567 40.1438 22.0567 40.1693C22.0567 40.1693 21.6477 40.0032 21.0641 39.8328ZM30.8664 39.4771C30.1593 39.492 29.3988 39.6645 28.8131 39.8328C28.2295 40.0032 27.8205 40.1693 27.8205 40.1693C27.8205 40.1438 28.6661 39.46 28.926 38.5825C29.1283 37.8945 29.2178 36.265 29.2434 36.1564C29.2519 36.1159 29.2774 36.0903 29.2774 36.0903C29.2945 36.0712 29.3179 36.0563 29.3456 36.0499C29.5479 36.0009 30.0741 35.8837 30.5341 35.9072H30.5555C30.9303 35.9391 31.0943 36.3246 31.1966 36.6356C31.3521 37.1085 31.5587 37.5579 31.6439 38.0521C31.6971 38.3609 31.727 38.7081 31.6098 39.0085C31.4863 39.3258 31.1945 39.4707 30.8664 39.4771Z" fill="#096936" stroke="#231F20" stroke-miterlimit="10"/>
<path d="M33.2642 38.4972C33.1514 37.3449 33.0512 36.2351 32.0629 35.4854C31.1427 34.7888 29.9542 34.857 28.9275 35.2681H20.9378C19.9132 34.857 18.7226 34.7888 17.8045 35.4854C16.8162 36.2351 16.7161 37.3449 16.6032 38.4972L15.2549 41.2045C15.2549 41.2045 16.682 41.4686 18.2497 41.7817C18.2518 41.7838 18.2561 41.7838 18.2603 41.7838C19.9878 42.131 21.8835 42.5336 22.2392 42.7104L22.9208 43.0469H26.9466L26.9572 43.0406C26.9572 43.0406 26.9615 43.0384 26.9636 43.0363C27.0062 43.0171 27.1489 42.949 27.6282 42.7104H27.6303C27.6836 42.6827 27.7709 42.6529 27.8859 42.6167C27.9072 42.6103 27.9328 42.6039 27.9583 42.5954C28.5952 42.4101 29.918 42.1246 31.2194 41.8626C31.2258 41.8605 31.2343 41.8584 31.2428 41.8584C32.949 41.5133 34.6104 41.2045 34.6104 41.2045L33.2642 38.4972ZM18.2327 38.052C18.3179 37.5579 18.5245 37.1084 18.6778 36.6356C18.7822 36.3246 18.9441 35.9391 19.3211 35.9071H19.3424C19.8004 35.8837 20.3286 36.0008 20.531 36.0498C20.5586 36.0562 20.5821 36.0711 20.5991 36.0903C20.5991 36.0903 20.6247 36.1158 20.6332 36.1563C20.6588 36.2649 20.7482 37.8944 20.9506 38.5824C21.2104 39.46 22.056 40.1437 22.056 40.1693C22.056 40.1693 21.6471 40.0031 21.0635 39.8327C20.4777 39.6645 19.7173 39.4919 19.0101 39.477C18.6821 39.4706 18.3903 39.3258 18.2667 39.0084C18.1496 38.7081 18.1794 38.3609 18.2327 38.052ZM31.6092 39.0084C31.4857 39.3258 31.1939 39.4706 30.8658 39.477C30.1587 39.4919 29.3982 39.6645 28.8125 39.8327C28.2289 40.0031 27.8199 40.1693 27.8199 40.1693C27.8199 40.1437 28.6655 39.46 28.9254 38.5824C29.1277 37.8944 29.2172 36.2649 29.2428 36.1563C29.2513 36.1158 29.2768 36.0903 29.2768 36.0903C29.2939 36.0711 29.3173 36.0562 29.345 36.0498C29.5473 36.0008 30.0735 35.8837 30.5335 35.9071H30.5548C30.9297 35.9391 31.0937 36.3246 31.196 36.6356C31.3515 37.1084 31.5581 37.5579 31.6433 38.052C31.6965 38.3609 31.7264 38.7081 31.6092 39.0084Z" fill="#D22D27" stroke="#231F20" stroke-miterlimit="10"/>
<path d="M24.9874 42.9404H24.8809V43.1534H24.9874V42.9404Z" fill="#231F20"/>
<path d="M25.0244 25.4573H24.8051C23.3934 25.4573 22.249 26.6016 22.249 28.0133V39.3493C22.249 40.761 23.3934 41.9053 24.8051 41.9053H25.0244C26.4361 41.9053 27.5805 40.761 27.5805 39.3493V28.0133C27.5805 26.6016 26.4361 25.4573 25.0244 25.4573Z" fill="#EFD1A5"/>
<path d="M25.0245 42.014H24.8051C23.3375 42.014 22.1426 40.819 22.1426 39.3514V28.0154C22.1426 26.5478 23.3375 25.3529 24.8051 25.3529H25.0245C26.4921 25.3529 27.687 26.5478 27.687 28.0154V39.3514C27.687 40.819 26.4921 42.014 25.0245 42.014ZM24.8051 25.5638C23.4547 25.5638 22.3556 26.6629 22.3556 28.0133V39.3493C22.3556 40.6997 23.4547 41.7988 24.8051 41.7988H25.0245C26.3749 41.7988 27.474 40.6997 27.474 39.3493V28.0133C27.474 26.6629 26.3749 25.5638 25.0245 25.5638H24.8051Z" fill="#231F20"/>
<path d="M41.9667 48.159C41.9667 49.1814 40.6972 52.2977 40.629 52.5043C39.9453 52.0122 39.1977 51.6033 38.4266 51.1794C38.237 51.075 38.0453 50.9749 37.8515 50.8727C37.8344 50.8642 37.8195 50.8556 37.8025 50.8493C37.6108 50.7513 37.417 50.6554 37.2189 50.5617C37.204 50.5532 37.1869 50.5468 37.1699 50.5404C36.9697 50.4467 36.7694 50.353 36.5649 50.2635C36.3498 50.1698 36.1347 50.0782 35.9153 49.9887C35.7747 49.9333 35.6363 49.8758 35.4935 49.8205L35.255 49.731C35.1165 49.6777 34.9802 49.6266 34.8396 49.5776C34.7523 49.5478 34.6607 49.5159 34.5734 49.486C34.2283 49.3668 33.8832 49.256 33.5297 49.1495C33.4168 49.1154 33.3039 49.0835 33.1889 49.0515C33.1846 49.0494 33.1825 49.0494 33.1761 49.0473C32.8608 48.9578 32.5435 48.8726 32.2218 48.7938C31.7404 48.6745 31.2484 48.568 30.7542 48.4721C30.6094 48.4445 30.4646 48.4168 30.3197 48.3933C30.1301 48.3593 29.9406 48.3294 29.751 48.2996C29.5827 48.2719 29.4123 48.2485 29.2419 48.2251C29.0715 48.2016 28.899 48.1803 28.7286 48.159C28.5561 48.1399 28.3857 48.1207 28.211 48.1037C28.0385 48.0845 27.8659 48.0696 27.6913 48.0547C27.5166 48.0398 27.3419 48.0248 27.1673 48.0142C27.0395 48.0057 26.9159 47.9971 26.7903 47.9908C26.6923 47.9844 26.5943 47.9801 26.4985 47.9759C26.2876 47.9652 26.0746 47.9588 25.8637 47.9546C25.7444 47.9503 25.6273 47.946 25.508 47.946C25.3504 47.9439 25.1927 47.9418 25.0373 47.9418C24.7263 47.9418 24.4174 47.946 24.1086 47.9546C23.9978 47.9588 23.8892 47.9631 23.7805 47.9673C23.591 47.9737 23.4035 47.9844 23.2161 47.995C23.0734 48.0035 22.9328 48.0121 22.7901 48.0227C22.6048 48.0355 22.4216 48.0504 22.2384 48.0674C22.068 48.0824 21.8976 48.0994 21.7272 48.1164C21.7144 48.1186 21.7016 48.1186 21.6867 48.1207C21.5057 48.1399 21.3268 48.1612 21.1457 48.1846C20.9881 48.2038 20.8305 48.2251 20.675 48.2485C20.6537 48.2506 20.6302 48.2528 20.6068 48.257C20.5791 48.2613 20.5536 48.2655 20.5259 48.2698C20.3768 48.2911 20.2319 48.3145 20.0849 48.338C19.9124 48.3656 19.7399 48.3955 19.5674 48.4274C19.3948 48.4572 19.2202 48.4913 19.0476 48.5254C18.8772 48.5595 18.7068 48.5957 18.5364 48.634C18.3703 48.6702 18.2041 48.7086 18.0423 48.749C17.8719 48.7895 17.7015 48.8321 17.531 48.8769C17.3649 48.9195 17.2009 48.9642 17.039 49.011C16.8793 49.0536 16.7216 49.0984 16.5661 49.1474C16.5534 49.1516 16.5385 49.1559 16.5257 49.1601C16.3894 49.2006 16.2552 49.2411 16.1188 49.2858C15.7141 49.4157 15.3158 49.5499 14.926 49.6969C14.5043 49.8524 14.0911 50.0185 13.6842 50.1932C13.5713 50.2401 13.4627 50.2891 13.3519 50.3402C13.1879 50.4105 13.0282 50.4872 12.8706 50.5617C11.9099 51.0154 11.0281 51.6182 10.0887 52.1145C10.0717 52.1251 10.0504 52.1337 10.0334 52.1273C10.0185 52.123 10.0078 52.1081 9.99928 52.0953C9.91834 51.9675 9.87361 51.8227 9.83101 51.6778C9.43483 50.3253 8.96196 49.0068 8.53809 47.6649C8.74044 47.5349 9.33685 47.2666 9.54772 47.143C11.6437 45.9076 14.1273 44.9235 16.8707 44.2653C19.3735 43.6626 22.0957 43.3324 24.9435 43.3324C28.1663 43.3324 31.2292 43.7541 33.9961 44.5167C36.6778 45.2515 39.0826 46.3038 41.0849 47.5967C41.3043 47.7373 41.7537 48.0185 41.9624 48.1654L41.9667 48.159Z" fill="#D22D27"/>
<path d="M40.6864 52.6747L40.5671 52.5895C39.8855 52.0996 39.1528 51.697 38.3753 51.2731C38.1858 51.1709 37.9962 51.0687 37.8024 50.9686C37.7811 50.9579 37.7725 50.9536 37.764 50.9494C37.5617 50.845 37.37 50.7513 37.1719 50.6576C37.1548 50.6491 37.1442 50.6448 37.1314 50.6405C36.9227 50.5425 36.7246 50.451 36.5201 50.3594C36.305 50.2656 36.092 50.1741 35.8726 50.0846L35.8406 50.0718C35.7107 50.0207 35.5829 49.9696 35.4508 49.9163L35.2123 49.8269C35.0738 49.7736 34.9375 49.7246 34.799 49.6756L34.5328 49.584C34.1771 49.4605 33.8363 49.3519 33.4933 49.2496C33.3804 49.2155 33.2675 49.1836 33.1547 49.1516L33.1333 49.1431C32.8501 49.0622 32.5391 48.9812 32.1898 48.8939C31.7062 48.7746 31.2142 48.6681 30.7264 48.5744C30.5837 48.5467 30.4367 48.519 30.294 48.4956C30.1045 48.4615 29.917 48.4317 29.7296 48.4019C29.557 48.3742 29.3888 48.3486 29.2184 48.3252C29.0757 48.306 28.9308 48.2869 28.786 48.2677L28.6646 48.2528C28.5069 48.2357 28.3514 48.2166 28.1938 48.2017C28.0213 48.1825 27.8488 48.1676 27.6762 48.1527H27.6549C27.4888 48.1356 27.3226 48.1228 27.1565 48.1122H27.1309C27.0138 48.1015 26.8988 48.0952 26.7816 48.0888C26.6815 48.0824 26.5857 48.0781 26.4898 48.0739C26.2789 48.0632 26.0681 48.0568 25.8572 48.0526C25.7379 48.0483 25.6208 48.044 25.5036 48.044C25.0329 48.0376 24.5685 48.0398 24.1063 48.0526L23.7804 48.0653C23.5994 48.0717 23.4226 48.0824 23.2436 48.0909L23.1819 48.0952C23.0519 48.1037 22.922 48.1101 22.7942 48.1207C22.6089 48.1335 22.4278 48.1484 22.2447 48.1654C22.0743 48.1804 21.9039 48.1974 21.7356 48.2144C21.7335 48.2144 21.7228 48.2144 21.7122 48.2166C21.5162 48.2379 21.3373 48.2592 21.1584 48.2826C21.0007 48.3018 20.8452 48.3231 20.6897 48.3465C20.6642 48.3486 20.645 48.3508 20.6237 48.355L20.5385 48.3678C20.3894 48.3891 20.2446 48.4125 20.0976 48.436C19.9272 48.4636 19.7547 48.4935 19.5843 48.5254C19.4117 48.5552 19.2371 48.5893 19.0667 48.6234C18.8984 48.6575 18.7323 48.6937 18.564 48.7299C18.3936 48.7682 18.2296 48.8066 18.0656 48.8449C17.8973 48.8854 17.7269 48.928 17.5565 48.9706C17.3925 49.0132 17.2285 49.0579 17.0666 49.1027C16.9068 49.1453 16.7513 49.19 16.5958 49.2368L16.5575 49.2496C16.419 49.2922 16.2827 49.3327 16.1485 49.3753C15.7119 49.5159 15.3221 49.6479 14.9621 49.7843C14.5489 49.9355 14.1314 50.1038 13.7246 50.2806C13.6138 50.3274 13.5073 50.3764 13.3987 50.4233C13.2304 50.4957 13.0728 50.5724 12.913 50.6469C12.3614 50.9089 11.8246 51.2263 11.3049 51.533C10.9257 51.7567 10.5338 51.9888 10.1376 52.1976C10.0801 52.2338 10.0268 52.2295 9.9949 52.2168C9.94803 52.204 9.92034 52.1614 9.90969 52.1443C9.82023 52.0059 9.77337 51.8525 9.73077 51.7034C9.48795 50.8748 9.21318 50.0526 8.94905 49.256C8.77652 48.7342 8.60186 48.2123 8.43572 47.6862L8.41016 47.6074L8.47832 47.5626C8.59547 47.4881 8.82977 47.3731 9.05768 47.2602C9.23447 47.1729 9.40275 47.0919 9.49221 47.0387C11.6286 45.7798 14.1037 44.8064 16.8451 44.1482C19.4224 43.5284 22.1467 43.2131 24.9434 43.2131C28.1086 43.2131 31.1631 43.6136 34.0237 44.4017C36.7075 45.1366 39.1017 46.176 41.1422 47.4966L41.2892 47.5903C41.5278 47.7416 41.8537 47.9482 42.0241 48.0675L42.0688 48.0994V48.1548C42.0688 49.0409 41.1699 51.3754 40.8313 52.253C40.7737 52.4021 40.7354 52.5 40.7269 52.532L40.6822 52.6704L40.6864 52.6747ZM33.2207 48.945C33.3357 48.977 33.4486 49.0089 33.5594 49.043C33.9044 49.1453 34.2474 49.256 34.6073 49.3796L34.8736 49.4711C35.0163 49.5223 35.1547 49.5713 35.2932 49.6245L35.5318 49.714C35.6638 49.7672 35.7937 49.8183 35.9237 49.8695L35.9556 49.8822C36.1772 49.9738 36.3923 50.0633 36.6095 50.1591C36.814 50.2507 37.0164 50.3423 37.2166 50.4382C37.2315 50.4424 37.2528 50.451 37.272 50.4637C37.4658 50.5553 37.6597 50.6512 37.8514 50.7513C37.8556 50.7513 37.8705 50.7598 37.8876 50.7683C38.0963 50.877 38.288 50.9792 38.4797 51.0836C39.2188 51.4883 39.9196 51.8717 40.5799 52.3339C40.597 52.2913 40.6161 52.238 40.6396 52.1784C40.9356 51.4095 41.8239 49.1005 41.8601 48.2102C41.6833 48.0909 41.3957 47.9077 41.1785 47.7693L41.0315 47.6755C39.008 46.3677 36.633 45.3368 33.9705 44.6083C31.1269 43.8245 28.0916 43.4283 24.9455 43.4283C22.1659 43.4283 19.4586 43.7414 16.8983 44.357C14.1761 45.0109 11.7223 45.9737 9.60297 47.224C9.50499 47.2815 9.33458 47.3646 9.15353 47.454C8.981 47.5392 8.78717 47.6329 8.66576 47.7032C8.82338 48.1995 8.98739 48.6937 9.15353 49.1879C9.41979 49.9866 9.69456 50.8131 9.93525 51.6374C9.9736 51.7694 10.0098 51.8909 10.0716 51.9952C10.4592 51.7886 10.8363 51.565 11.2026 51.3498C11.7266 51.041 12.2676 50.7215 12.83 50.4552C12.9897 50.3785 13.1516 50.304 13.3156 50.2316C13.4285 50.1804 13.5371 50.1315 13.6479 50.0846C14.0569 49.9078 14.4786 49.7395 14.894 49.5862C15.2582 49.4498 15.6501 49.3135 16.091 49.1729C16.2273 49.1303 16.3637 49.0877 16.5 49.0473L16.5234 49.0388C16.6981 48.9855 16.8578 48.9408 17.0176 48.896C17.1816 48.8513 17.3456 48.8045 17.5118 48.7619C17.6822 48.7193 17.8526 48.6745 18.023 48.634C18.187 48.5957 18.3531 48.5574 18.5193 48.519C18.6939 48.4807 18.8622 48.4445 19.0305 48.4104C19.203 48.3763 19.3798 48.3401 19.5523 48.3103C19.7248 48.2783 19.8974 48.2485 20.0699 48.2208C20.2169 48.1974 20.3639 48.174 20.513 48.1505L20.5939 48.1378C20.6195 48.1335 20.645 48.1314 20.6684 48.1292C20.8218 48.1058 20.9794 48.0845 21.1371 48.0653C21.3181 48.0419 21.497 48.0206 21.6781 48.0014H21.6994C21.889 47.9801 22.0594 47.9631 22.2298 47.9482C22.4129 47.9311 22.5961 47.9162 22.7836 47.9035C22.9135 47.8928 23.0434 47.8864 23.1734 47.8779L23.2351 47.8736C23.414 47.863 23.5951 47.8523 23.7762 47.8481L24.102 47.8353C24.5685 47.8225 25.0393 47.8204 25.5079 47.8268C25.6271 47.8268 25.7464 47.831 25.8657 47.8353C26.0766 47.8396 26.2896 47.8459 26.5026 47.8566C26.6006 47.8609 26.6964 47.8651 26.7965 47.8715C26.9115 47.8779 27.0287 47.8843 27.148 47.8928H27.1735C27.3418 47.9056 27.5101 47.9184 27.6762 47.9333H27.6975C27.8722 47.9503 28.0469 47.9652 28.2194 47.9844C28.3791 47.9993 28.5346 48.0185 28.6923 48.0355L28.8158 48.0504C28.9606 48.0696 29.1055 48.0866 29.2503 48.1079C29.4207 48.1314 29.5911 48.1548 29.7615 48.1846C29.9532 48.2144 30.1428 48.2464 30.3324 48.2805C30.4751 48.3039 30.6242 48.3316 30.769 48.3614C31.2589 48.4551 31.7552 48.5638 32.243 48.683C32.5945 48.7704 32.9076 48.8534 33.2015 48.9386L33.2164 48.9429L33.2207 48.945Z" fill="#231F20"/>
</svg>
