<?xml version="1.0" encoding="UTF-8"?>
<svg id="Layer_1" data-name="Layer 1" xmlns="http://www.w3.org/2000/svg" height="512" width="512" viewBox="0 0 419.53 595.28">
  <defs>
    <style>
      .cls-1 {
        fill: #0e4221;
      }

      .cls-1, .cls-2, .cls-3, .cls-4, .cls-5, .cls-6, .cls-7, .cls-8, .cls-9, .cls-10, .cls-11, .cls-12, .cls-13 {
        stroke-width: 0px;
      }

      .cls-2 {
        fill: #000;
      }

      .cls-3 {
        fill: #713817;
      }

      .cls-4 {
        fill: #1f3326;
      }

      .cls-14, .cls-15, .cls-16 {
        stroke: #231f20;
        stroke-miterlimit: 10;
      }

      .cls-14, .cls-8 {
        fill: #d22d27;
      }

      .cls-5 {
        fill: #efd1a5;
      }

      .cls-6 {
        fill: #d49529;
      }

      .cls-15, .cls-7 {
        fill: #096936;
      }

      .cls-15, .cls-16 {
        stroke-width: 2px;
      }

      .cls-9 {
        fill: #231f20;
      }

      .cls-10, .cls-16 {
        fill: #f7be3d;
      }

      .cls-11 {
        fill: #0b5f31;
      }

      .cls-12 {
        fill: #0c4220;
      }

      .cls-13 {
        fill: #d2b88f;
      }
    </style>
  </defs>
  <g>
    <path class="cls-7" d="M148.66,302.11c-.58-4.39-1.8-13.63-9.5-18.48-6.15-3.87-12.7-2.48-19.43-1.59-5.2.69-10.3.83-15.01,3.4-4.18,2.28-7.84,5.97-9.68,10.4-.82,1.96-1.79,5.42-1.82,9.44-.02,2.3.28,4.15.46,5.29.33,1.98.74,4.51,2.09,7.42.57,1.23,1.82,3.86,4.46,6.43,3.35,3.26,7.09,4.63,9.45,5.22,2.68.66,4.85.63,7.2.51,4.22-.22,10.37-.79,18.12-2.39,2.3-.61,6.13-1.99,9.27-5.37,6.17-6.64,4.97-15.85,4.39-20.25Z"/>
    <path class="cls-9" d="M114.62,330.7c-1.57,0-3.2-.13-5.06-.59-2.56-.64-6.32-2.08-9.68-5.34-2.76-2.68-4.03-5.41-4.57-6.57-1.38-2.97-1.8-5.51-2.13-7.55-.17-1.04-.49-2.98-.47-5.37.04-4.87,1.44-8.6,1.86-9.62,1.79-4.31,5.4-8.19,9.91-10.64,3.96-2.16,8.08-2.63,12.45-3.12.91-.1,1.82-.21,2.74-.33.62-.08,1.25-.17,1.87-.26,5.98-.83,12.17-1.69,17.9,1.92,7.91,4.98,9.14,14.34,9.73,18.84h0c.59,4.5,1.81,13.85-4.52,20.66-2.43,2.61-5.72,4.52-9.51,5.52-6.29,1.29-12.41,2.1-18.22,2.4-.75.04-1.51.07-2.28.07ZM129.47,281.55c-2.54,0-5.14.36-7.81.73-.62.09-1.25.17-1.88.26-.92.12-1.84.23-2.76.33-4.26.48-8.29.94-12.08,3.01-4.31,2.35-7.75,6.05-9.46,10.15-.41.98-1.75,4.56-1.79,9.25-.02,2.31.29,4.19.46,5.2.33,1.98.73,4.44,2.05,7.29.52,1.11,1.73,3.72,4.36,6.28,3.19,3.11,6.78,4.48,9.22,5.09,2.65.66,4.76.61,7.05.49,5.76-.3,11.83-1.1,18.05-2.38,3.58-.94,6.71-2.75,9.01-5.22,6.01-6.47,4.83-15.51,4.26-19.85l.5-.07-.5.07c-.57-4.35-1.75-13.39-9.27-18.12-3.04-1.92-6.18-2.51-9.42-2.51Z"/>
  </g>
  <g>
    <path class="cls-11" d="M270.41,306.25c0-4.43,0-13.75,7-19.56,5.59-4.64,12.27-4.11,19.06-4.11,5.24,0,10.32-.52,15.33,1.4,4.45,1.71,8.56,4.89,10.96,9.04,1.07,1.84,2.48,5.14,3.04,9.12.32,2.28.27,4.15.23,5.3-.06,2-.15,4.57-1.11,7.63-.41,1.3-1.3,4.06-3.58,6.95-2.89,3.67-6.43,5.52-8.69,6.41-2.57,1.01-4.73,1.26-7.07,1.44-4.21.33-10.39.57-18.28,0-2.36-.3-6.34-1.17-9.89-4.12-6.99-5.78-7-15.07-7-19.51Z"/>
    <path class="cls-9" d="M296.66,330.71c-3.07,0-6.2-.11-9.39-.34-3.92-.5-7.43-1.96-10.18-4.23-7.17-5.93-7.18-15.36-7.18-19.89h0c0-4.54,0-13.98,7.18-19.95,5.21-4.33,11.46-4.29,17.49-4.24,1.55.01,3.11,0,4.65-.02,4.39-.08,8.54-.15,12.75,1.47,4.79,1.84,8.87,5.22,11.21,9.26.56.96,2.43,4.48,3.11,9.3.33,2.37.27,4.33.23,5.39-.07,2.06-.15,4.63-1.13,7.76-.38,1.22-1.28,4.09-3.67,7.11-2.9,3.68-6.44,5.6-8.9,6.56-2.66,1.05-4.93,1.29-7.21,1.48-2.9.23-5.9.34-8.97.34ZM292.69,283.05c-5.43,0-10.54.34-14.96,4.02-6.83,5.67-6.82,14.79-6.82,19.18h-.5.5c0,4.38.01,13.5,6.82,19.12,2.64,2.18,5.88,3.53,9.64,4,6.29.45,12.42.45,18.18,0,2.29-.18,4.39-.41,6.93-1.41,2.34-.92,5.72-2.75,8.48-6.25,2.27-2.88,3.13-5.62,3.5-6.79.94-3,1.02-5.49,1.08-7.5.03-1.03.09-2.93-.22-5.22-.65-4.64-2.45-8.01-2.98-8.94-2.23-3.84-6.13-7.06-10.71-8.83-4.03-1.55-8.09-1.48-12.37-1.4-1.55.03-3.12.04-4.67.02-.63,0-1.26,0-1.88,0Z"/>
  </g>
  <g>
    <path class="cls-10" d="M289.99,182.61h4.2c7.58,0,13.73,6.15,13.73,13.73v9.95c0,6.62-5.38,12-12,12h-7.66c-6.62,0-12-5.38-12-12v-9.95c0-7.58,6.15-13.73,13.73-13.73Z" transform="translate(319.64 -152.73) rotate(60)"/>
    <path class="cls-9" d="M288.99,219.68c-1.13,0-2.28-.15-3.41-.45-3.36-.9-6.17-3.05-7.9-6.04l-3.83-6.63c-1.73-3-2.19-6.5-1.28-9.86s3.05-6.17,6.04-7.9l8.62-4.97c7.04-4.06,16.06-1.64,20.13,5.39l2.1,3.63c4.06,7.04,1.64,16.06-5.39,20.12l-8.62,4.97c-1.99,1.15-4.21,1.74-6.45,1.74ZM294.58,183.85c-2.16,0-4.34.55-6.34,1.7l-8.62,4.97c-2.53,1.46-4.35,3.84-5.11,6.68s-.38,5.81,1.08,8.34l3.83,6.63c1.46,2.53,3.84,4.35,6.68,5.11,2.85.76,5.81.38,8.34-1.08l8.62-4.97c6.08-3.51,8.17-11.31,4.66-17.39l-2.1-3.63c-2.36-4.08-6.65-6.36-11.05-6.36Z"/>
  </g>
  <g>
    <ellipse class="cls-6" cx="301.83" cy="194.83" rx="4.74" ry="9.54" transform="translate(-56.98 177.02) rotate(-30)"/>
    <path class="cls-9" d="M305.28,203.93c-.98,0-2.09-.39-3.26-1.17-1.74-1.16-3.42-3.04-4.73-5.32-2.82-4.88-3.03-9.85-.48-11.32,2.54-1.47,6.75,1.2,9.56,6.08h0c1.31,2.27,2.11,4.67,2.24,6.76.14,2.21-.49,3.83-1.76,4.56-.47.27-1,.4-1.57.4ZM298.38,186.73c-.4,0-.76.09-1.08.27-1.99,1.15-1.6,5.71.85,9.95,1.24,2.14,2.81,3.91,4.42,4.98,1.49.99,2.87,1.25,3.77.73.91-.53,1.37-1.85,1.26-3.63-.12-1.93-.87-4.18-2.11-6.32h0c-2.06-3.57-5.04-5.98-7.12-5.98Z"/>
  </g>
  <g>
    <ellipse class="cls-3" cx="301.83" cy="194.2" rx="1.88" ry="2.73" transform="translate(-55.2 157.5) rotate(-26.89)"/>
    <path class="cls-9" d="M302.44,197.29c-.38,0-.77-.11-1.16-.32-.64-.35-1.2-.95-1.57-1.69s-.53-1.54-.43-2.26c.11-.79.5-1.39,1.1-1.69,1.19-.61,2.77.19,3.59,1.8.82,1.61.53,3.35-.67,3.96-.27.13-.55.2-.85.2ZM301.22,192.12c-.14,0-.28.03-.4.09-.4.2-.52.67-.56.94-.07.51.05,1.12.33,1.68.28.55.7,1.01,1.16,1.26.23.13.69.31,1.08.1.67-.34.77-1.54.23-2.61-.44-.88-1.21-1.45-1.84-1.45Z"/>
  </g>
  <g>
    <path class="cls-10" d="M295.15,350.44h4.2c7.58,0,13.73,6.15,13.73,13.73v9.95c0,6.62-5.38,12-12,12h-7.66c-6.62,0-12-5.38-12-12v-9.95c0-7.58,6.15-13.73,13.73-13.73Z" transform="translate(725.42 166.64) rotate(103.69)"/>
    <path class="cls-9" d="M300.75,386.03c-1.16,0-2.33-.14-3.49-.42l-9.67-2.35c-6.96-1.7-11.25-8.74-9.55-15.71l1.81-7.44c1.7-6.96,8.75-11.25,15.71-9.55l9.67,2.35c3.81.93,7.04,3.29,9.09,6.67,2.05,3.37,2.67,7.33,1.74,11.13l-.99,4.08c-.93,3.81-3.29,7.04-6.67,9.09-2.35,1.43-4.98,2.16-7.65,2.16ZM279.98,368.02c-1.43,5.89,2.19,11.86,8.08,13.29l9.67,2.35c3.29.8,6.71.27,9.62-1.51,2.92-1.77,4.96-4.56,5.76-7.85l.99-4.08c.8-3.29.27-6.71-1.51-9.62-1.77-2.92-4.56-4.96-7.85-5.76l-9.67-2.35c-5.89-1.43-11.85,2.19-13.29,8.08l-1.81,7.44Z"/>
  </g>
  <g>
    <ellipse class="cls-6" cx="308.18" cy="370.95" rx="9.54" ry="4.74" transform="translate(-125.16 582.58) rotate(-76.31)"/>
    <path class="cls-9" d="M306.49,380.79c-.23,0-.46-.03-.69-.08-2.86-.7-4.05-5.53-2.72-11,.62-2.55,1.7-4.83,3.05-6.43,1.43-1.69,3-2.44,4.42-2.09,2.86.7,4.05,5.53,2.72,11h0c-1.23,5.03-4.1,8.6-6.77,8.6ZM309.87,362.11c-.93,0-1.98.64-2.97,1.81-1.25,1.48-2.26,3.62-2.84,6.02-1.16,4.76-.25,9.25,1.98,9.79,2.24.54,5.1-3.02,6.26-7.78,1.16-4.76.25-9.25-1.98-9.79-.14-.04-.29-.05-.45-.05Z"/>
  </g>
  <g>
    <ellipse class="cls-3" cx="308.61" cy="370.49" rx="2.73" ry="1.88" transform="translate(-135.27 558.83) rotate(-73.2)"/>
    <path class="cls-9" d="M308.21,373.66c-.18,0-.36-.03-.54-.08-.64-.19-1.13-.72-1.38-1.48-.22-.69-.21-1.51.03-2.3.24-.79.68-1.48,1.25-1.93.62-.5,1.32-.66,1.96-.47.64.19,1.13.72,1.38,1.48.22.69.21,1.51-.03,2.3-.45,1.49-1.56,2.48-2.68,2.48ZM309.01,368.32c-.34,0-.64.19-.81.33-.41.32-.74.85-.92,1.44s-.19,1.22-.03,1.71c.08.25.28.69.71.82.72.22,1.62-.58,1.97-1.73.18-.59.19-1.22.03-1.71-.08-.25-.28-.69-.71-.83-.08-.02-.16-.04-.24-.04Z"/>
  </g>
  <g>
    <path class="cls-10" d="M125.34,182.93h7.66c6.62,0,12,5.38,12,12v9.95c0,7.58-6.15,13.73-13.73,13.73h-4.2c-7.58,0-13.73-6.15-13.73-13.73v-9.95c0-6.62,5.38-12,12-12Z" transform="translate(367.63 189.3) rotate(120)"/>
    <path class="cls-9" d="M132.29,220.01c-2.2,0-4.44-.56-6.48-1.74l-8.62-4.97c-3.4-1.96-5.83-5.14-6.85-8.95-1.02-3.81-.5-7.78,1.46-11.18l2.1-3.63c4.06-7.04,13.09-9.45,20.13-5.39l8.62,4.97c3,1.73,5.14,4.53,6.04,7.9.9,3.36.45,6.87-1.28,9.86l-3.83,6.63c-2.41,4.17-6.78,6.5-11.28,6.5ZM126.68,184.17c-4.4,0-8.69,2.28-11.05,6.36l-2.1,3.63c-1.69,2.93-2.14,6.36-1.26,9.66.88,3.3,2.98,6.04,5.92,7.74l8.62,4.97c5.25,3.03,11.99,1.23,15.03-4.03l3.83-6.63c1.46-2.53,1.85-5.5,1.08-8.34-.76-2.85-2.58-5.22-5.11-6.68l-8.62-4.97c-2-1.15-4.19-1.7-6.34-1.7Z"/>
  </g>
  <g>
    <ellipse class="cls-6" cx="119.43" cy="195.15" rx="9.54" ry="4.74" transform="translate(-109.29 201) rotate(-60)"/>
    <path class="cls-9" d="M115.98,204.25c-.57,0-1.1-.13-1.57-.4-1.27-.73-1.89-2.35-1.75-4.56.13-2.08.92-4.48,2.24-6.76h0c2.82-4.88,7.02-7.54,9.56-6.08,2.55,1.47,2.33,6.44-.48,11.32-2.29,3.97-5.51,6.48-7.99,6.48ZM115.76,193.03c-1.24,2.14-1.98,4.39-2.11,6.32-.11,1.78.35,3.11,1.26,3.63,1.99,1.15,5.74-1.47,8.19-5.71s2.84-8.8.85-9.95c-1.99-1.15-5.74,1.47-8.19,5.71h0Z"/>
  </g>
  <g>
    <ellipse class="cls-3" cx="119.43" cy="194.53" rx="2.73" ry="1.88" transform="translate(-108.08 213.07) rotate(-63.11)"/>
    <path class="cls-9" d="M118.82,197.61c-.3,0-.59-.07-.85-.2-.6-.3-.99-.91-1.1-1.69-.1-.72.05-1.52.43-2.26.37-.74.93-1.34,1.57-1.69.7-.38,1.42-.42,2.01-.12,1.19.6,1.48,2.34.67,3.96-.38.74-.93,1.34-1.57,1.68-.39.21-.78.32-1.16.32ZM120.04,192.45c-.27,0-.53.11-.69.2-.46.25-.88.71-1.16,1.26h0c-.28.55-.4,1.16-.33,1.68.04.26.16.73.56.94.4.2.85.02,1.08-.1.46-.25.88-.71,1.16-1.26.55-1.08.44-2.27-.23-2.61-.13-.07-.27-.09-.4-.09Z"/>
  </g>
  <g>
    <path class="cls-10" d="M123.78,350.26h7.66c6.62,0,12,5.38,12,12v9.95c0,7.58-6.15,13.73-13.73,13.73h-4.2c-7.58,0-13.73-6.15-13.73-13.73v-9.95c0-6.62,5.38-12,12-12Z" transform="translate(455.05 157.01) rotate(76.31)"/>
    <path class="cls-9" d="M124.11,385.85c-6.63,0-12.68-4.52-14.31-11.25l-.99-4.08c-1.92-7.89,2.94-15.88,10.83-17.8l9.67-2.35c3.36-.82,6.85-.27,9.82,1.54,2.98,1.81,5.06,4.66,5.88,8.02l1.81,7.44c1.7,6.96-2.59,14.01-9.55,15.71l-9.67,2.35c-1.17.28-2.34.42-3.49.42ZM132.37,352c-.87,0-1.74.1-2.6.31l-9.67,2.35c-6.82,1.66-11.02,8.56-9.36,15.38l.99,4.08c1.66,6.82,8.56,11.02,15.38,9.36l9.67-2.35c5.89-1.44,9.52-7.4,8.08-13.29l-1.81-7.44c-.69-2.84-2.46-5.25-4.98-6.78-1.75-1.07-3.72-1.62-5.71-1.62Z"/>
  </g>
  <g>
    <ellipse class="cls-6" cx="116.68" cy="370.76" rx="4.74" ry="9.54" transform="translate(-84.43 38.15) rotate(-13.69)"/>
    <path class="cls-9" d="M118.36,380.6c-1.23,0-2.53-.75-3.72-2.17-1.35-1.6-2.43-3.88-3.05-6.43h0c-1.33-5.47-.14-10.3,2.72-11,2.86-.71,6.14,3.05,7.47,8.52.62,2.55.71,5.08.25,7.11-.49,2.16-1.54,3.54-2.97,3.88-.23.06-.46.08-.7.08ZM115,361.92c-.16,0-.31.02-.46.05-2.23.54-3.14,5.03-1.98,9.79h0c.59,2.4,1.59,4.54,2.84,6.02,1.15,1.37,2.4,2.01,3.42,1.76,1.02-.25,1.83-1.39,2.23-3.13.43-1.89.34-4.25-.25-6.66-1.08-4.44-3.65-7.84-5.8-7.84Z"/>
  </g>
  <g>
    <ellipse class="cls-3" cx="116.25" cy="370.31" rx="1.88" ry="2.73" transform="translate(-102.08 49.41) rotate(-16.8)"/>
    <path class="cls-9" d="M116.65,373.48c-.48,0-.97-.19-1.43-.55-.57-.45-1.01-1.14-1.25-1.93s-.25-1.61-.03-2.3c.24-.76.73-1.28,1.38-1.48.64-.19,1.34-.03,1.96.47.57.45,1.01,1.14,1.25,1.93.24.79.25,1.61.03,2.3-.24.76-.73,1.28-1.38,1.48-.18.05-.36.08-.54.08ZM115.85,368.14c-.08,0-.16.01-.24.04-.43.13-.63.57-.71.83-.16.49-.15,1.12.03,1.71h0c.18.59.51,1.12.92,1.44.21.17.62.42,1.05.29.43-.13.63-.57.71-.83.16-.49.15-1.12-.03-1.71s-.51-1.12-.92-1.44c-.17-.13-.47-.33-.81-.33Z"/>
  </g>
  <path class="cls-16" d="M275.69,193.47c-15.91-11.78-44.71-14.41-64.39-14.41-24.89,0-53.18,2.98-71.48,21.11-25.75,25.51-26.35,77.14-18.19,121.43,14.84,80.62,30.6,124.38,90.5,124.38,52.97,0,74.25-36.96,83.74-101.76,1.2-8.18,2.21-16.81,3.07-25.87.03-.31.06-.62.09-.94,4.83-51.51,9.18-99.85-23.34-123.94ZM227.98,334.5c-2.74.8-4.66,1.58-4.66,1.58,0-.12,3.97-3.33,5.19-7.45.95-3.23,1.37-10.88,1.49-11.39.04-.19.16-.31.16-.31.08-.09.19-.16.32-.19.95-.23,3.42-.78,5.58-.67h.1c1.76.15,2.53,1.96,3.01,3.42.73,2.22,1.7,4.33,2.1,6.65.25,1.45.39,3.08-.16,4.49-.58,1.49-1.95,2.17-3.49,2.2-3.32.07-6.89.88-9.64,1.67ZM191.6,334.5c-2.75-.79-6.32-1.6-9.64-1.67-1.54-.03-2.91-.71-3.49-2.2-.55-1.41-.41-3.04-.16-4.49.4-2.32,1.37-4.43,2.09-6.65.49-1.46,1.25-3.27,3.02-3.42h.1c2.15-.11,4.63.44,5.58.67.13.03.24.1.32.19,0,0,.12.12.16.31.12.51.54,8.16,1.49,11.39,1.22,4.12,5.19,7.33,5.19,7.45,0,0-1.92-.78-4.66-1.58ZM259.34,382.39c-6.94,10.54-25.84,18.09-48.08,18.09s-41.85-7.84-48.46-18.7c-.64-1.05-1.17-2.12-1.56-3.23-.61-1.65-.92-3.35-.92-5.1,0-6.52,4.36-12.5,11.61-17.17,11.75-2.83,24.53-4.37,37.9-4.37,15.13,0,29.51,1.98,42.5,5.55,6.2,4.48,9.87,10.01,9.87,15.99,0,2.33-.55,4.59-1.6,6.74-.36.75-.78,1.48-1.26,2.2Z"/>
  <path class="cls-15" d="M283.09,244.93c-14.71-3.42-34.86,4.43-48.83,8.34-18.95,5.32-35.89,1.56-41.83.23-15.56-3.44-31.76-11.68-49.07-11.03-2.03.07-5.47.32-9.08,2.26-6.75,3.64-10,10.98-12.01,18.38-2,7.38-5.08,23.46.28,58.49,1.09,7.11,4.26,26.35,11.76,50.55.07.21.13.43.2.65.12.4.25.8.37,1.18,1.46,4.65,2.79,8.51,3.78,11.29,2.23-.59,4.49-1.22,6.77-1.89,2.33-.68,4.7-1.4,7.08-2.12,2.88-.89,5.8-1.8,8.73-2.71,2.61-.81,5.24-1.61,7.87-2.4h.01c3.93-1.18,7.86-2.31,11.8-3.32h.01c10.81-2.8,21.54-4.76,31.7-4.55,10.09.2,19.78,2.39,29.48,5.43h.01c6.13,1.91,12.25,4.18,18.48,6.48,1.91.71,3.82,1.42,5.75,2.12h.02c2.48.92,5.01,1.83,7.55,2.72,2.61.91,5.26,1.8,7.94,2.62.64.21,1.27.41,1.91.6.47-1.55,1.04-3.03,1.71-4.73.78-1.95,1.66-4.19,2.6-7.17.2-.61.39-1.27.59-1.97.32-1.12.65-2.33.97-3.66,1.49-6.1,4.13-15.33,6.23-26.5,1.47-7.8,2.69-16.57,3.07-25.87.08-1.88.13-3.79.13-5.71.04-17.01,6.02-62.58-15.98-67.71ZM237.62,332.83c-3.32.07-6.89.88-9.64,1.67-2.74.8-4.66,1.58-4.66,1.58,0-.12,3.97-3.33,5.19-7.45.95-3.23,1.37-10.88,1.49-11.39.04-.19.16-.31.16-.31.08-.09.19-.16.32-.19.95-.23,3.42-.78,5.58-.67h.1c1.76.15,2.53,1.96,3.01,3.42.73,2.22,1.7,4.33,2.1,6.65.25,1.45.39,3.08-.16,4.49-.58,1.49-1.95,2.17-3.49,2.2ZM178.31,326.14c.4-2.32,1.37-4.43,2.09-6.65.49-1.46,1.25-3.27,3.02-3.42h.1c2.15-.11,4.63.44,5.58.67.13.03.24.1.32.19,0,0,.12.12.16.31.12.51.54,8.16,1.49,11.39,1.22,4.12,5.19,7.33,5.19,7.45,0,0-1.92-.78-4.66-1.58-2.75-.79-6.32-1.6-9.64-1.67-1.54-.03-2.91-.71-3.49-2.2-.55-1.41-.41-3.04-.16-4.49Z"/>
  <g>
    <path class="cls-3" d="M221.35,219.66s-.82,10.04,1.73,12.82,48.51-11.09,61.34,0c12.82,11.08,15.94,26.67,15.94,26.68-2.84-14.2-2.15-30.55-12.98-41.94-11.07-11.65-25.38-11.97-40.04-7.61-25.64,7.62-25.99,10.05-25.99,10.05Z"/>
    <path class="cls-9" d="M299.87,259.29s0-.01,0-.02h0s0-.02,0-.03c-.23-1.11-3.52-15.78-15.77-26.38-8.42-7.28-31.62-3.55-46.98-1.08-9.27,1.49-13.41,2.11-14.4,1.04-2.67-2.9-1.9-12.78-1.86-13.2v-.03c.09-.64,2.27-3.3,26.35-10.46,17.41-5.18,30.67-2.64,40.54,7.75,8.35,8.79,9.94,20.48,11.48,31.78.47,3.46.96,7.04,1.63,10.41l-.98.21ZM266.41,227.62c7.69,0,14.46,1.13,18.34,4.49,7.54,6.52,11.75,14.56,13.96,20.15-.17-1.16-.32-2.32-.48-3.47-1.51-11.14-3.08-22.67-11.21-31.23-9.59-10.09-22.52-12.54-39.53-7.48-22.52,6.69-25.34,9.35-25.64,9.72-.22,2.82-.33,10.22,1.61,12.34.67.71,7.19-.33,13.5-1.35,8.66-1.39,19.78-3.18,29.45-3.18Z"/>
  </g>
  <g>
    <path class="cls-1" d="M190.43,272.72c.68,1.35.99,2.9.73,4.83-1.05,7.65-9.25,11.64-15.46,14.66-7.2,3.5-14.9,6.22-22.76,7.79-3.17.63-6.4,1.08-9.64,1.08-17.84,0-22-14.06-22-28.64s15.97-24.69,33.54-21.43c7.83,1.45,15.13,5.16,21.68,9.57,2.76,1.86,5.42,3.88,7.97,6.02,2.33,1.96,4.72,3.7,5.94,6.11Z"/>
    <path class="cls-9" d="M143.3,301.58c-14.93,0-22.5-9.8-22.5-29.14,0-6.09,2.76-11.74,7.78-15.91,6.72-5.58,16.57-7.83,26.35-6.01,7.01,1.3,14.17,4.46,21.87,9.65,2.7,1.82,5.39,3.85,8.01,6.05.33.27.65.54.98.81,2.05,1.69,3.99,3.29,5.09,5.46h0c.78,1.56,1.04,3.23.78,5.12-1.09,7.91-9.55,12.03-15.73,15.03-7.56,3.68-15.26,6.31-22.89,7.84-3.73.75-6.83,1.09-9.74,1.09ZM148.25,250.9c-7.21,0-14.03,2.24-19.03,6.4-4.78,3.98-7.42,9.35-7.42,15.14,0,18.93,7.03,28.14,21.5,28.14,2.85,0,5.88-.34,9.54-1.07,7.54-1.51,15.16-4.11,22.64-7.75,5.98-2.91,14.16-6.89,15.18-14.27.23-1.68,0-3.17-.68-4.53h0c-1-1.98-2.86-3.52-4.83-5.14-.33-.27-.66-.54-.99-.82-2.59-2.18-5.26-4.19-7.93-5.99-7.59-5.11-14.62-8.22-21.5-9.5-2.18-.4-4.35-.6-6.5-.6Z"/>
  </g>
  <g>
    <path class="cls-1" d="M229.1,273.34c-.68,1.35-.99,2.9-.73,4.83,1.05,7.65,9.25,11.64,15.46,14.66,7.2,3.5,14.9,6.22,22.76,7.79,3.17.63,6.4,1.08,9.64,1.08,17.84,0,22-14.06,22-28.64s-15.97-24.69-33.54-21.43c-7.83,1.45-15.13,5.16-21.68,9.57-2.76,1.86-5.42,3.88-7.97,6.02-2.33,1.96-4.72,3.7-5.94,6.11Z"/>
    <path class="cls-9" d="M276.23,302.2c-2.92,0-6.01-.35-9.74-1.09-7.63-1.52-15.32-4.16-22.88-7.83-6.18-3.01-14.64-7.12-15.74-15.04-.26-1.89,0-3.57.78-5.12h0c1.09-2.17,3.03-3.77,5.09-5.46.33-.27.65-.54.98-.81,2.62-2.2,5.32-4.24,8.01-6.05,7.71-5.19,14.86-8.35,21.87-9.65,9.79-1.82,19.64.43,26.36,6.01,5.02,4.17,7.78,9.82,7.78,15.91,0,19.33-7.57,29.14-22.5,29.14ZM271.28,251.52c-2.14,0-4.32.2-6.5.6-6.87,1.28-13.91,4.38-21.5,9.5-2.67,1.8-5.33,3.81-7.93,5.99-.33.28-.66.55-.99.82-1.97,1.62-3.83,3.15-4.83,5.14h0c-.69,1.37-.91,2.85-.68,4.53,1.02,7.38,9.2,11.36,15.18,14.27,7.49,3.64,15.1,6.25,22.65,7.75,3.66.73,6.69,1.07,9.54,1.07,14.47,0,21.5-9.2,21.5-28.14,0-5.79-2.63-11.16-7.42-15.14-5-4.16-11.82-6.4-19.03-6.4Z"/>
  </g>
  <g>
    <path class="cls-3" d="M198.56,219.66s.82,10.04-1.73,12.82c-2.55,2.78-48.51-11.09-61.34,0-12.82,11.08-15.94,26.67-15.94,26.68,2.84-14.2,2.15-30.55,12.98-41.94,11.07-11.65,25.38-11.97,40.04-7.61,25.64,7.62,25.99,10.05,25.99,10.05Z"/>
    <path class="cls-9" d="M120.04,259.27l-.98-.2h0c.68-3.37,1.16-6.95,1.63-10.41,1.54-11.3,3.12-22.99,11.48-31.78,9.87-10.39,23.13-12.92,40.54-7.75,24.08,7.16,26.25,9.81,26.34,10.46v.03c.04.42.81,10.3-1.86,13.2-.98,1.07-5.12.46-14.4-1.04-15.36-2.47-38.57-6.2-46.98,1.08-12.54,10.84-15.75,26.25-15.78,26.4ZM156.63,207.54c-9.53,0-17.37,3.33-23.73,10.03-8.13,8.56-9.7,20.08-11.21,31.23-.16,1.18-.32,2.37-.49,3.56,2.22-5.62,6.45-13.74,13.97-20.25,8.77-7.58,32.25-3.81,47.79-1.31,6.31,1.01,12.83,2.06,13.5,1.35,1.94-2.12,1.83-9.52,1.61-12.34-.3-.37-3.12-3.02-25.64-9.72-5.72-1.7-10.97-2.55-15.8-2.55Z"/>
  </g>
  <g>
    <path class="cls-10" d="M235.45,275.07c-.59.25-.43,1.11.21,1.13,9.56.39,15.94,3.06,20.02,5.44,8.8,5.13,12.29,12.06,20.87,12.34,1.09.04,5.75.14,9.94-2.88,5.24-3.78,7.29-10.84,7.29-18.57,0-7.66-2.93-14.69-8.67-18.51-1.25-.83-5.25-3.24-10.6-2.99-8.78.41-12.56,7.58-23.72,15.53-3.52,2.5-8.58,5.66-15.35,8.51Z"/>
    <path class="cls-9" d="M277.1,294.76c-.21,0-.4,0-.58,0-5.71-.19-9.24-3.16-13.32-6.6-2.34-1.97-4.75-4-7.9-5.84-5.55-3.24-12.17-5.04-19.67-5.34-.64-.03-1.16-.48-1.27-1.1-.11-.62.22-1.23.8-1.47h0c5.46-2.3,10.58-5.13,15.21-8.43,3.77-2.68,6.68-5.27,9.26-7.56,5.11-4.54,8.8-7.82,14.86-8.11,5.19-.24,9.14,1.85,11.05,3.12,5.72,3.8,9,10.78,9,19.13,0,6.25-1.32,14.65-7.61,19.18-3.57,2.58-7.49,3.04-9.83,3.04ZM236.38,275.49c7.46.4,14.08,2.25,19.67,5.51,3.26,1.9,5.84,4.08,8.11,5.99,4.03,3.4,7.21,6.08,12.41,6.25,2.02.07,5.95-.2,9.48-2.74,5.77-4.16,6.98-12.07,6.98-17.97,0-7.85-3.04-14.36-8.33-17.89-1.75-1.17-5.41-3.09-10.15-2.87-5.53.26-9.05,3.39-13.93,7.73-2.6,2.31-5.55,4.93-9.38,7.66-4.54,3.23-9.54,6.03-14.85,8.32Z"/>
  </g>
  <g>
    <ellipse class="cls-5" cx="276.34" cy="272.51" rx="14.68" ry="18.82" transform="translate(-46.96 57.79) rotate(-11.01)"/>
    <path class="cls-9" d="M277.72,291.7c-7.42,0-14.45-6.81-16.29-16.29-.98-5.04-.37-10.09,1.72-14.21,2.11-4.16,5.48-6.88,9.49-7.66,4-.78,8.15.48,11.67,3.54,3.48,3.03,5.94,7.48,6.93,12.52.98,5.04.37,10.09-1.72,14.21-2.11,4.16-5.48,6.88-9.49,7.66-.77.15-1.54.22-2.3.22ZM274.97,254.32c-.71,0-1.43.07-2.14.21-3.7.72-6.82,3.25-8.79,7.13-1.99,3.92-2.57,8.74-1.63,13.56,1.93,9.92,9.75,16.77,17.42,15.28,3.7-.72,6.82-3.25,8.79-7.13,1.99-3.92,2.57-8.74,1.63-13.56-.94-4.83-3.28-9.07-6.6-11.96-2.65-2.31-5.67-3.52-8.68-3.52Z"/>
  </g>
  <g>
    <ellipse class="cls-2" cx="274.32" cy="272.51" rx="6.59" ry="7.81" transform="translate(-33.27 38.19) rotate(-7.51)"/>
    <path class="cls-9" d="M274.61,282.3c-4.31,0-8.15-3.69-8.81-8.67-.71-5.36,2.54-10.23,7.23-10.85,4.69-.62,9.09,3.24,9.8,8.6h0c.71,5.36-2.54,10.23-7.23,10.85-.33.04-.66.06-.99.06ZM274.03,266.72c-.16,0-.32.01-.48.03-2.51.33-4.21,3.18-3.79,6.36.42,3.18,2.79,5.5,5.31,5.16,2.51-.33,4.21-3.18,3.79-6.36h0c-.39-2.97-2.5-5.19-4.83-5.19Z"/>
  </g>
  <g>
    <path class="cls-10" d="M181.18,274.44c.93.41.69,1.78-.33,1.85-8.68.6-14.58,3.11-18.43,5.36-8.8,5.13-12.29,12.06-20.87,12.34-1.09.04-5.75.14-9.94-2.88-5.24-3.78-7.29-10.84-7.29-18.57s2.93-14.69,8.67-18.51c1.25-.83,5.25-3.24,10.6-2.99,8.78.41,12.56,7.58,23.72,15.53,3.26,2.32,7.84,5.2,13.89,7.88Z"/>
    <path class="cls-9" d="M140.99,294.76c-2.33,0-6.25-.46-9.83-3.04-6.29-4.54-7.61-12.93-7.61-19.18,0-8.36,3.28-15.33,9-19.13,1.91-1.27,5.88-3.37,11.05-3.12,6.06.28,9.75,3.56,14.86,8.11,2.57,2.29,5.49,4.88,9.26,7.56,4.22,3,8.85,5.63,13.76,7.8.74.33,1.14,1.08,1,1.87-.14.79-.78,1.36-1.58,1.42-6.85.48-12.94,2.25-18.1,5.26-3.15,1.84-5.57,3.87-7.9,5.84-4.08,3.44-7.61,6.41-13.32,6.6-.18,0-.37,0-.58,0ZM142.79,251.76c-4.37,0-7.73,1.78-9.39,2.89-5.29,3.52-8.33,10.04-8.33,17.89,0,5.9,1.21,13.8,6.98,17.97,3.53,2.54,7.46,2.81,9.48,2.74,5.19-.17,8.38-2.86,12.4-6.25,2.27-1.92,4.85-4.09,8.11-5.99,5.36-3.13,11.67-4.96,18.76-5.46.12,0,.19-.07.21-.18.02-.11-.02-.19-.13-.24h0c-5-2.22-9.72-4.89-14.02-7.95-3.83-2.73-6.78-5.35-9.38-7.66-4.88-4.34-8.41-7.47-13.93-7.73-.25-.01-.5-.02-.75-.02Z"/>
  </g>
  <g>
    <ellipse class="cls-5" cx="141.55" cy="271.46" rx="18.82" ry="14.68" transform="translate(-155.01 347.47) rotate(-76.84)"/>
    <path class="cls-9" d="M139.9,290.59c-.92,0-1.84-.1-2.75-.32-8.15-1.91-12.81-11.9-10.38-22.27,1.17-5,3.79-9.36,7.39-12.26,3.63-2.93,7.82-4.03,11.79-3.1,3.97.93,7.24,3.77,9.19,8.01,1.94,4.19,2.36,9.26,1.19,14.26h0c-2.15,9.21-9.18,15.67-16.43,15.67ZM143.17,253.33c-2.87,0-5.78,1.1-8.39,3.2-3.42,2.76-5.93,6.92-7.05,11.71-2.3,9.84,2.02,19.29,9.64,21.07,7.62,1.78,15.68-4.78,17.98-14.61h0c1.12-4.79.72-9.62-1.12-13.62-1.82-3.95-4.85-6.6-8.51-7.46-.84-.2-1.69-.29-2.55-.29Z"/>
  </g>
  <g>
    <ellipse class="cls-2" cx="143.78" cy="271.46" rx="7.81" ry="6.59" transform="translate(-144.14 378.53) rotate(-82.49)"/>
    <path class="cls-9" d="M143.51,281.25c-.34,0-.67-.02-1.01-.07-4.69-.62-7.94-5.49-7.23-10.85h0c.71-5.36,5.11-9.22,9.8-8.6,2.34.31,4.38,1.65,5.74,3.78,1.29,2.02,1.82,4.53,1.49,7.07-.33,2.54-1.5,4.82-3.27,6.44-1.6,1.46-3.53,2.23-5.51,2.23ZM139.23,270.86c-.42,3.18,1.28,6.03,3.79,6.36,1.15.15,2.33-.26,3.31-1.15,1.08-.98,1.79-2.41,2-4.01.21-1.6-.11-3.16-.89-4.39-.72-1.12-1.75-1.82-2.9-1.97-2.51-.33-4.89,1.98-5.31,5.16h0Z"/>
  </g>
  <path class="cls-13" d="M248.98,306.78c16.18,1.63,34.22-3.97,49.04,3.94,0,0-.04,4.03-.04,4.03-13.22-7.99-33.88-4.43-49.12-6.94,0,0,.12-1.04.12-1.04h0Z"/>
  <path class="cls-13" d="M249.33,310.15c6.48,5.98,14.9,9.51,23.68,10.11,9.11.75,17.03-.21,24.07,6.76,0,0-.74,6.13-.74,6.13-2.61-2.96-6.89-5.28-10.93-6.54-8.33-2.6-18.25-2.64-26.08-7.25-4.06-2.24-7.75-5.02-10.83-8.47l.82-.74h0Z"/>
  <path class="cls-13" d="M249.54,315.6c1.38,6.87,7.51,11.79,14.01,13.67,12.03,3.25,21.73,4.76,31.52,13.5,0,0-1.19,6.04-1.19,6.04-5.95-6.59-16.23-10.59-24.62-13.79-4.54-1.65-9.65-3.17-13.5-6.4-4-3.21-6.95-7.78-7.45-12.92l1.23-.1h0Z"/>
  <path class="cls-13" d="M173.35,306.78c-16.18,1.63-36.35-3.66-51.18,4.26,0,0,.48,4.3.48,4.3,13.22-7.99,35.59-5.01,50.83-7.52,0,0-.12-1.04-.12-1.04h0Z"/>
  <path class="cls-13" d="M173.01,310.15c-6.48,5.98-14.9,9.51-23.68,10.11-9.11.75-17.41.11-24.45,7.07,0,0,1.11,5.81,1.11,5.81,2.61-2.96,6.89-5.28,10.93-6.54,8.33-2.6,18.25-2.64,26.08-7.25,4.06-2.24,7.75-5.02,10.83-8.47l-.82-.74h0Z"/>
  <path class="cls-13" d="M172.8,315.6c-1.38,6.87-7.51,11.79-14.01,13.67-12.03,3.25-21.45,4.62-31.25,13.35,0,0,1.31,5.79,1.31,5.79,5.95-6.59,15.83-10.19,24.22-13.39,4.54-1.65,9.65-3.17,13.5-6.4,4-3.21,6.95-7.78,7.45-12.92l-1.23-.1h0Z"/>
  <g>
    <path class="cls-7" d="M209.26,208.49c-4.78,0-14.83,0-21.09-7.55-5.01-6.03-4.44-13.23-4.44-20.55,0-5.65-.57-11.13,1.51-16.53,1.85-4.79,5.28-9.23,9.75-11.82,1.98-1.15,5.54-2.68,9.83-3.28,2.46-.34,4.47-.29,5.72-.25,2.16.07,4.92.16,8.23,1.19,1.4.44,4.38,1.4,7.5,3.86,3.95,3.12,5.95,6.93,6.91,9.37,1.09,2.77,1.36,5.1,1.56,7.62.36,4.54.61,11.2,0,19.71-.32,2.55-1.27,6.83-4.44,10.67-6.23,7.54-16.25,7.54-21.03,7.55Z"/>
    <path class="cls-9" d="M208.9,209.5c-5.08,0-15.08-.17-21.51-7.91-4.77-5.75-4.73-12.57-4.68-19.16,0-.68,0-1.35,0-2.03,0-.99-.02-1.98-.04-2.97-.08-4.57-.17-9.3,1.62-13.92,2.03-5.26,5.74-9.75,10.18-12.32,1.06-.61,4.91-2.67,10.19-3.41,2.59-.36,4.74-.29,5.89-.26,2.13.07,5.06.16,8.49,1.24,1.35.42,4.5,1.41,7.82,4.03,4.04,3.19,6.16,7.08,7.22,9.79,1.15,2.93,1.43,5.42,1.62,7.91.5,6.28.5,12.96,0,19.86-.55,4.34-2.16,8.2-4.66,11.23-6.53,7.9-16.84,7.91-21.8,7.91h-.36ZM208.98,149.49c-1.08,0-2.47.05-4.02.27-4.92.69-8.49,2.59-9.47,3.16-4.06,2.35-7.45,6.47-9.32,11.31-1.64,4.26-1.57,8.59-1.48,13.17.02,1,.04,2,.04,3,0,.68,0,1.37,0,2.05-.05,6.52-.09,12.68,4.22,17.87,5.98,7.2,15.66,7.18,20.32,7.19h0c4.65,0,14.33-.01,20.26-7.19,2.26-2.74,3.72-6.25,4.22-10.16.48-6.75.48-13.33,0-19.5-.19-2.43-.44-4.66-1.49-7.34-.97-2.47-2.91-6.04-6.6-8.95-3.03-2.39-5.94-3.31-7.18-3.69-3.17-1-5.83-1.08-7.96-1.15-.4-.01-.91-.03-1.53-.03Z"/>
  </g>
  <g>
    <ellipse class="cls-12" cx="209.23" cy="167.59" rx="22.18" ry="16.63"/>
    <path class="cls-9" d="M209.23,184.73c-12.5,0-22.68-7.69-22.68-17.13s10.17-17.13,22.68-17.13,22.68,7.69,22.68,17.13-10.17,17.13-22.68,17.13ZM209.23,151.46c-11.95,0-21.68,7.24-21.68,16.13s9.72,16.13,21.68,16.13,21.68-7.24,21.68-16.13-9.72-16.13-21.68-16.13Z"/>
  </g>
  <g>
    <ellipse class="cls-12" cx="320.18" cy="307.83" rx="11.55" ry="3.76" transform="translate(-13.99 600.4) rotate(-85.08)"/>
    <path class="cls-9" d="M319.3,319.84c-.05,0-.1,0-.16,0h0c-2.76-.24-3.71-6.55-3.21-12.37.5-5.82,2.56-11.89,5.28-11.64,2.76.24,3.71,6.55,3.21,12.37-.49,5.71-2.45,11.65-5.12,11.65ZM319.23,318.83c1.5.12,3.64-4.24,4.2-10.73.56-6.49-.76-11.16-2.3-11.29-1.5-.11-3.64,4.24-4.2,10.73-.56,6.49.76,11.15,2.3,11.29h0Z"/>
  </g>
  <g>
    <ellipse class="cls-12" cx="99.32" cy="307.88" rx="3.76" ry="11.55" transform="translate(-20.02 7.19) rotate(-3.77)"/>
    <path class="cls-9" d="M99.99,319.9c-1.21,0-2.33-1.21-3.25-3.52-.87-2.18-1.46-5.1-1.67-8.23-.21-3.13,0-6.1.58-8.38.63-2.49,1.63-3.84,2.88-3.93,1.27-.08,2.42,1.13,3.37,3.51.87,2.18,1.46,5.1,1.67,8.23.38,5.83-.7,12.12-3.46,12.3l-.03-.5.03.5s-.08,0-.12,0ZM98.65,296.85s-.03,0-.05,0c-.75.05-1.49,1.24-1.98,3.17-.55,2.17-.75,5.04-.55,8.06.2,3.03.77,5.84,1.6,7.92.74,1.86,1.65,2.93,2.38,2.89,1.54-.1,2.95-4.74,2.53-11.24-.2-3.03-.77-5.84-1.6-7.92-.73-1.82-1.59-2.89-2.33-2.89Z"/>
  </g>
  <g>
    <ellipse class="cls-3" cx="209.23" cy="167.59" rx="8.77" ry="7.28"/>
    <path class="cls-9" d="M209.23,175.37c-5.11,0-9.27-3.49-9.27-7.78s4.16-7.78,9.27-7.78,9.27,3.49,9.27,7.78-4.16,7.78-9.27,7.78ZM209.23,160.82c-4.56,0-8.27,3.04-8.27,6.78s3.71,6.78,8.27,6.78,8.27-3.04,8.27-6.78-3.71-6.78-8.27-6.78Z"/>
  </g>
  <g>
    <polygon class="cls-5" points="167.05 411.09 153.59 395.81 161.17 389.87 167.05 411.09"/>
    <path class="cls-9" d="M168.11,413.05l-15.24-17.31,8.58-6.73,6.66,24.04ZM154.32,395.88l11.66,13.25-5.1-18.4-6.57,5.15Z"/>
  </g>
  <g>
    <polygon class="cls-5" points="259.86 412.19 271.17 395.26 262.87 390.38 259.86 412.19"/>
    <path class="cls-9" d="M259.07,414.28l3.41-24.71,9.4,5.54-12.81,19.18ZM263.27,391.19l-2.61,18.92,9.81-14.68-7.19-4.24Z"/>
  </g>
  <g>
    <polygon class="cls-5" points="222 427.99 200.52 427.77 211.38 416.43 222 427.99"/>
    <path class="cls-9" d="M223.15,428.5l-23.78-.25,12.02-12.55,11.76,12.8ZM201.68,427.28l19.16.2-9.48-10.31-9.69,10.11Z"/>
  </g>
  <g>
    <polygon class="cls-5" points="190.4 424.27 173.12 415.85 187.35 408.59 190.4 424.27"/>
    <path class="cls-9" d="M191.09,425.16l-19.09-9.3,15.72-8.02,3.37,17.32ZM174.24,415.84l15.48,7.54-2.73-14.05-12.75,6.5Z"/>
  </g>
  <g>
    <path class="cls-4" d="M134.16,370.49c18.68-11.77,44.5-31.45,74.63-31.45s61.16,22.65,79.89,35.34l-154.51-3.89Z"/>
    <path class="cls-9" d="M290.36,374.93l-157.87-3.98,1.4-.88c2.36-1.49,4.82-3.09,7.43-4.79,18.27-11.91,41.01-26.74,67.47-26.74,28.76,0,56.46,19.1,74.79,31.74,1.88,1.3,3.68,2.54,5.38,3.69l1.41.96ZM135.81,370.04l151.17,3.81c-1.28-.88-2.61-1.79-3.98-2.74-18.23-12.57-45.77-31.56-74.22-31.56-26.16,0-48.76,14.74-66.92,26.58-2.1,1.37-4.11,2.68-6.05,3.92Z"/>
  </g>
  <g>
    <polygon class="cls-5" points="252.33 416.97 234.94 425.18 238.19 409.54 252.33 416.97"/>
    <path class="cls-9" d="M234.25,426.06l3.58-17.27,15.62,8.21-19.2,9.07ZM238.54,410.29l-2.91,14.01,15.58-7.35-12.67-6.66Z"/>
  </g>
  <g>
    <path class="cls-8" d="M283.66,394.68c-.27.99-.58,1.98-.89,2.95-9.08,27.87-34.62,48.31-70.57,49.3-36.43,1-66.15-23.99-71.28-52.26-.13-.69-.24-1.37-.33-2.07-.49-3.5-5.6-11.09-3.35-13.98,1.29-1.66,9.96,1.43,10.7-.4.82-2.03,3.93-1.36,3.83.83-.02.52-.03,1.03-.03,1.55,0,.22,0,.44.01.67.04,2.38.3,4.72.8,6.99,4.73,22.47,29.95,39.62,60.36,39.62s53.4-15.69,59.61-36.69c.6-2.01,1.03-4.06,1.27-6.16.09-.74.16-1.48.2-2.22.05-.74.07-1.48.07-2.21v-.1c0-1.78,2.47-2.25,3.06-.58.37,1.02.97,2.09,1.66,3.19.94,1.48,2.04,3.01,2.99,4.55,1.46,2.39,2.51,4.79,1.89,7.02Z"/>
    <path class="cls-9" d="M210,447.96c-37.87,0-65.27-26.69-70.07-53.12-.13-.7-.25-1.4-.34-2.12-.15-1.08-.87-2.76-1.62-4.54-1.65-3.86-3.35-7.85-1.53-10.19.99-1.27,3.5-.93,6.39-.53,1.37.19,3.62.5,4.22.25.58-1.29,1.94-1.97,3.36-1.66,1.45.32,2.42,1.56,2.35,3.02-.02.5-.03,1-.03,1.5,0,.21,0,.42,0,.62.04,2.36.3,4.65.78,6.83,4.74,22.5,29.71,38.83,59.38,38.83,27.82,0,52.48-15.13,58.65-35.97.59-2,1.01-4.02,1.24-5.99.1-.79.16-1.49.2-2.16.05-.69.07-1.39.07-2.16v-.1c0-1.3.89-2.36,2.17-2.58,1.25-.21,2.41.47,2.84,1.66.3.81.79,1.77,1.56,3,.41.64.85,1.3,1.3,1.97.57.85,1.16,1.72,1.69,2.58,1.34,2.19,2.77,5.05,2,7.82h0c-.26.93-.55,1.9-.9,2.99-9.74,29.89-37.13,49.05-71.49,49.99-.75.02-1.49.03-2.23.03ZM138.97,379.1c-.46,0-.82.04-.98.16-1.07,1.38.6,5.29,1.82,8.15.81,1.9,1.58,3.7,1.77,5.05.09.69.2,1.35.33,2.02,4.74,26.11,32.31,52.52,70.28,51.45,33.49-.92,60.18-19.55,69.64-48.61.31-.96.61-1.93.88-2.91h0c.56-2.03-.66-4.4-1.78-6.24-.52-.84-1.08-1.68-1.64-2.51-.46-.68-.91-1.36-1.34-2.02-.86-1.38-1.4-2.42-1.75-3.39-.14-.39-.45-.4-.62-.37-.12.02-.51.12-.51.6v.1c0,.82-.02,1.56-.07,2.28-.04.7-.11,1.45-.21,2.28-.24,2.08-.68,4.2-1.31,6.32-6.52,22.02-31.43,37.4-60.57,37.4-30.61,0-56.41-17-61.34-40.41-.5-2.3-.78-4.72-.82-7.18,0-.21-.01-.45-.01-.68,0-.53.01-1.06.03-1.59.03-.75-.59-.94-.78-.98-.14-.03-.84-.14-1.12.57-.67,1.65-3.15,1.31-6.3.87-.98-.14-2.55-.35-3.59-.35Z"/>
  </g>
  <path class="cls-15" d="M230.55,290.68c-3.79-2.55-3.31-6.36-7.65-13.47-2.4-3.93-4.27-7.96-9.14-9.13-3.73-.89-9-.83-11.95,1.94-2.12,1.99-3.36,4.71-4.79,7.19-4.44,7.67-4.17,11.12-7.66,13.47-6.69,4.51-24.58,1.84-25.34,51,0,0,6.65.74,14.37,1.97.01.01.03.01.05.01,8.77,1.42,18.91,3.5,22.25,5.93h18.53l.05-.03s.02-.01.03-.02c.75-.53,1.82-1.05,3.12-1.53h.01c.38-.15.78-.29,1.2-.44.1-.03.22-.06.34-.1,4.12-1.34,9.84-2.51,15.31-3.44.03-.01.07-.02.11-.02,8.59-1.46,16.5-2.33,16.5-2.33-.76-49.16-18.65-46.49-25.34-51ZM191.6,334.5c-2.75-.79-6.32-1.6-9.64-1.67-1.54-.03-2.91-.71-3.49-2.2-.55-1.41-.41-3.04-.16-4.49.4-2.32,1.37-4.43,2.09-6.65.49-1.46,1.25-3.27,3.02-3.42h.1c2.15-.11,4.63.44,5.58.67.13.03.24.1.32.19,0,0,.12.12.16.31.12.51.54,8.16,1.49,11.39,1.22,4.12,5.19,7.33,5.19,7.45,0,0-1.92-.78-4.66-1.58ZM237.62,332.83c-3.32.07-6.89.88-9.64,1.67-2.74.8-4.66,1.58-4.66,1.58,0-.12,3.97-3.33,5.19-7.45.95-3.23,1.37-10.88,1.49-11.39.04-.19.16-.31.16-.31.08-.09.19-.16.32-.19.95-.23,3.42-.78,5.58-.67h.1c1.76.15,2.53,1.96,3.01,3.42.73,2.22,1.7,4.33,2.1,6.65.25,1.45.39,3.08-.16,4.49-.58,1.49-1.95,2.17-3.49,2.2Z"/>
  <g>
    <path class="cls-14" d="M248.88,328.23c-.53-5.41-1-10.62-5.64-14.14-4.32-3.27-9.9-2.95-14.72-1.02h-37.51c-4.81-1.93-10.4-2.25-14.71,1.02-4.64,3.52-5.11,8.73-5.64,14.14l-6.33,12.71s6.7,1.24,14.06,2.71c.01.01.03.01.05.01,8.11,1.63,17.01,3.52,18.68,4.35l3.2,1.58h18.9l.05-.03s.02-.01.03-.02c.2-.09.87-.41,3.12-1.53h.01c.25-.13.66-.27,1.2-.44.1-.03.22-.06.34-.1,2.99-.87,9.2-2.21,15.31-3.44.03-.01.07-.02.11-.02,8.01-1.62,15.81-3.07,15.81-3.07l-6.32-12.71ZM178.31,326.14c.4-2.32,1.37-4.43,2.09-6.65.49-1.46,1.25-3.27,3.02-3.42h.1c2.15-.11,4.63.44,5.58.67.13.03.24.1.32.19,0,0,.12.12.16.31.12.51.54,8.16,1.49,11.39,1.22,4.12,5.19,7.33,5.19,7.45,0,0-1.92-.78-4.66-1.58-2.75-.79-6.32-1.6-9.64-1.67-1.54-.03-2.91-.71-3.49-2.2-.55-1.41-.41-3.04-.16-4.49ZM241.11,330.63c-.58,1.49-1.95,2.17-3.49,2.2-3.32.07-6.89.88-9.64,1.67-2.74.8-4.66,1.58-4.66,1.58,0-.12,3.97-3.33,5.19-7.45.95-3.23,1.37-10.88,1.49-11.39.04-.19.16-.31.16-.31.08-.09.19-.16.32-.19.95-.23,3.42-.78,5.58-.67h.1c1.76.15,2.53,1.96,3.01,3.42.73,2.22,1.7,4.33,2.1,6.65.25,1.45.39,3.08-.16,4.49Z"/>
    <rect class="cls-9" x="209.52" y="349.09" width=".5" height="1"/>
  </g>
  <g>
    <rect class="cls-5" x="197.16" y="267.01" width="25.03" height="77.22" rx="12" ry="12"/>
    <path class="cls-9" d="M210.19,344.74h-1.03c-6.89,0-12.5-5.61-12.5-12.5v-53.22c0-6.89,5.61-12.5,12.5-12.5h1.03c6.89,0,12.5,5.61,12.5,12.5v53.22c0,6.89-5.61,12.5-12.5,12.5ZM209.16,267.51c-6.34,0-11.5,5.16-11.5,11.5v53.22c0,6.34,5.16,11.5,11.5,11.5h1.03c6.34,0,11.5-5.16,11.5-11.5v-53.22c0-6.34-5.16-11.5-11.5-11.5h-1.03Z"/>
  </g>
  <g>
    <path class="cls-8" d="M289.73,373.59c0,4.8-5.96,19.43-6.28,20.4-3.21-2.31-6.72-4.23-10.34-6.22-.89-.49-1.79-.96-2.7-1.44-.08-.04-.15-.08-.23-.11-.9-.46-1.81-.91-2.74-1.35-.07-.04-.15-.07-.23-.1-.94-.44-1.88-.88-2.84-1.3-1.01-.44-2.02-.87-3.05-1.29-.66-.26-1.31-.53-1.98-.79l-1.12-.42c-.65-.25-1.29-.49-1.95-.72-.41-.14-.84-.29-1.25-.43-1.62-.56-3.24-1.08-4.9-1.58-.53-.16-1.06-.31-1.6-.46-.02-.01-.03-.01-.06-.02-1.48-.42-2.97-.82-4.48-1.19-2.26-.56-4.57-1.06-6.89-1.51-.68-.13-1.36-.26-2.04-.37-.89-.16-1.78-.3-2.67-.44-.79-.13-1.59-.24-2.39-.35-.8-.11-1.61-.21-2.41-.31-.81-.09-1.61-.18-2.43-.26-.81-.09-1.62-.16-2.44-.23s-1.64-.14-2.46-.19c-.6-.04-1.18-.08-1.77-.11-.46-.03-.92-.05-1.37-.07-.99-.05-1.99-.08-2.98-.1-.56-.02-1.11-.04-1.67-.04-.74-.01-1.48-.02-2.21-.02-1.46,0-2.91.02-4.36.06-.52.02-1.03.04-1.54.06-.89.03-1.77.08-2.65.13-.67.04-1.33.08-2,.13-.87.06-1.73.13-2.59.21-.8.07-1.6.15-2.4.23-.06.01-.12.01-.19.02-.85.09-1.69.19-2.54.3-.74.09-1.48.19-2.21.3-.1.01-.21.02-.32.04-.13.02-.25.04-.38.06-.7.1-1.38.21-2.07.32-.81.13-1.62.27-2.43.42-.81.14-1.63.3-2.44.46-.8.16-1.6.33-2.4.51-.78.17-1.56.35-2.32.54-.8.19-1.6.39-2.4.6-.78.2-1.55.41-2.31.63-.75.2-1.49.41-2.22.64-.06.02-.13.04-.19.06-.64.19-1.27.38-1.91.59-1.9.61-3.77,1.24-5.6,1.93-1.98.73-3.92,1.51-5.83,2.33-.53.22-1.04.45-1.56.69-.77.33-1.52.69-2.26,1.04-4.51,2.13-8.65,4.96-13.06,7.29-.08.05-.18.09-.26.06-.07-.02-.12-.09-.16-.15-.38-.6-.59-1.28-.79-1.96-1.86-6.35-4.08-12.54-6.07-18.84.95-.61,3.75-1.87,4.74-2.45,9.84-5.8,21.5-10.42,34.38-13.51,11.75-2.83,24.53-4.38,37.9-4.38,15.13,0,29.51,1.98,42.5,5.56,12.59,3.45,23.88,8.39,33.28,14.46,1.03.66,3.14,1.98,4.12,2.67Z"/>
    <path class="cls-9" d="M283.72,394.79l-.56-.4c-3.2-2.3-6.64-4.19-10.29-6.18-.89-.48-1.78-.96-2.69-1.43-.1-.05-.14-.07-.18-.09-.95-.49-1.85-.93-2.78-1.37-.08-.04-.13-.06-.19-.08-.98-.46-1.91-.89-2.87-1.32-1.01-.44-2.01-.87-3.04-1.29l-.15-.06c-.61-.24-1.21-.48-1.83-.73l-1.12-.42c-.65-.25-1.29-.48-1.94-.71l-1.25-.43c-1.67-.58-3.27-1.09-4.88-1.57-.53-.16-1.06-.31-1.59-.46l-.1-.04c-1.33-.38-2.79-.76-4.43-1.17-2.27-.56-4.58-1.06-6.87-1.5-.67-.13-1.36-.26-2.03-.37-.89-.16-1.77-.3-2.65-.44-.81-.13-1.6-.25-2.4-.36-.67-.09-1.35-.18-2.03-.27l-.57-.07c-.74-.08-1.47-.17-2.21-.24-.81-.09-1.62-.16-2.43-.23h-.1c-.78-.08-1.56-.14-2.34-.19h-.12c-.55-.05-1.09-.08-1.64-.11-.47-.03-.92-.05-1.37-.07-.99-.05-1.98-.08-2.97-.1-.56-.02-1.11-.04-1.66-.04-2.21-.03-4.39-.02-6.56.04l-1.53.06c-.85.03-1.68.08-2.52.12l-.29.02c-.61.04-1.22.07-1.82.12-.87.06-1.72.13-2.58.21-.8.07-1.6.15-2.39.23-.01,0-.06,0-.11.01-.92.1-1.76.2-2.6.31-.74.09-1.47.19-2.2.3-.12.01-.21.02-.31.04l-.4.06c-.7.1-1.38.21-2.07.32-.8.13-1.61.27-2.41.42-.81.14-1.63.3-2.43.46-.79.16-1.57.33-2.36.5-.8.18-1.57.36-2.34.54-.79.19-1.59.39-2.39.59-.77.2-1.54.41-2.3.62-.75.2-1.48.41-2.21.63l-.18.06c-.65.2-1.29.39-1.92.59-2.05.66-3.88,1.28-5.57,1.92-1.94.71-3.9,1.5-5.81,2.33-.52.22-1.02.45-1.53.67-.79.34-1.53.7-2.28,1.05-2.59,1.23-5.11,2.72-7.55,4.16-1.78,1.05-3.62,2.14-5.48,3.12-.27.17-.52.15-.67.09-.22-.06-.35-.26-.4-.34-.42-.65-.64-1.37-.84-2.07-1.14-3.89-2.43-7.75-3.67-11.49-.81-2.45-1.63-4.9-2.41-7.37l-.12-.37.32-.21c.55-.35,1.65-.89,2.72-1.42.83-.41,1.62-.79,2.04-1.04,10.03-5.91,21.65-10.48,34.52-13.57,12.1-2.91,24.89-4.39,38.02-4.39,14.86,0,29.2,1.88,42.63,5.58,12.6,3.45,23.84,8.33,33.42,14.53l.69.44c1.12.71,2.65,1.68,3.45,2.24l.21.15v.26c0,4.16-4.22,15.12-5.81,19.24-.27.7-.45,1.16-.49,1.31l-.21.65ZM248.67,377.28c.54.15,1.07.3,1.59.46,1.62.48,3.23,1,4.92,1.58l1.25.43c.67.24,1.32.47,1.97.72l1.12.42c.62.25,1.23.49,1.84.73l.15.06c1.04.43,2.05.85,3.07,1.3.96.43,1.91.86,2.85,1.31.07.02.17.06.26.12.91.43,1.82.88,2.72,1.35.02,0,.09.04.17.08.98.51,1.88.99,2.78,1.48,3.47,1.9,6.76,3.7,9.86,5.87.08-.2.17-.45.28-.73,1.39-3.61,5.56-14.45,5.73-18.63-.83-.56-2.18-1.42-3.2-2.07l-.69-.44c-9.5-6.14-20.65-10.98-33.15-14.4-13.35-3.68-27.6-5.54-42.37-5.54-13.05,0-25.76,1.47-37.78,4.36-12.78,3.07-24.3,7.59-34.25,13.46-.46.27-1.26.66-2.11,1.08-.81.4-1.72.84-2.29,1.17.74,2.33,1.51,4.65,2.29,6.97,1.25,3.75,2.54,7.63,3.67,11.5.18.62.35,1.19.64,1.68,1.82-.97,3.59-2.02,5.31-3.03,2.46-1.45,5-2.95,7.64-4.2.75-.36,1.51-.71,2.28-1.05.53-.24,1.04-.47,1.56-.69,1.92-.83,3.9-1.62,5.85-2.34,1.71-.64,3.55-1.28,5.62-1.94.64-.2,1.28-.4,1.92-.59l.11-.04c.82-.25,1.57-.46,2.32-.67.77-.21,1.54-.43,2.32-.63.8-.2,1.6-.41,2.4-.6.77-.18,1.55-.36,2.33-.54.82-.18,1.61-.35,2.4-.51.81-.16,1.64-.33,2.45-.47.81-.15,1.62-.29,2.43-.42.69-.11,1.38-.22,2.08-.33l.38-.06c.12-.02.24-.03.35-.04.72-.11,1.46-.21,2.2-.3.85-.11,1.69-.21,2.54-.3h.1c.89-.1,1.69-.18,2.49-.25.86-.08,1.72-.15,2.6-.21.61-.05,1.22-.08,1.83-.12l.29-.02c.84-.05,1.69-.1,2.54-.12l1.53-.06c2.19-.06,4.4-.07,6.6-.04.56,0,1.12.02,1.68.04.99.02,1.99.05,2.99.1.46.02.91.04,1.38.07.54.03,1.09.06,1.65.1h.12c.79.06,1.58.12,2.36.19h.1c.82.08,1.64.15,2.45.24.75.07,1.48.16,2.22.24l.58.07c.68.09,1.36.17,2.04.27.8.11,1.6.22,2.4.36.9.14,1.79.29,2.68.45.67.11,1.37.24,2.05.38,2.3.44,4.63.95,6.92,1.51,1.65.41,3.12.8,4.5,1.2l.07.02Z"/>
  </g>
</svg>